<?xml version="1.0" encoding="UTF-8" standalone="no"?>
<!DOCTYPE svg PUBLIC "-//W3C//DTD SVG 1.1//EN" "http://www.w3.org/Graphics/SVG/1.1/DTD/svg11.dtd">
<svg xmlns="http://www.w3.org/2000/svg" xmlns:xlink="http://www.w3.org/1999/xlink" version="1.1" width="286.205pt" height="271.639pt" viewBox="0 0 286.205 271.639">
<g enable-background="new">
<text xml:space="preserve" transform="matrix(1 0 -0 1 0 271.639)" font-size="9.9626" font-family="CMMI10" font-style="italic"><tspan y="-260.403" x="187.254 194.03853 196.80814 201.99866 207.26888">L.val</tspan></text>
<text xml:space="preserve" transform="matrix(1 0 -0 1 0 271.639)" font-size="9.9626" font-family="CMR10"><tspan y="-260.403" x="213.19 223.71051 228.6918">=19</tspan></text>
<text xml:space="preserve" transform="matrix(1 0 -0 1 .0000076293949 271.639)" font-size="9.9626" font-family="CMMI10" font-style="italic"><tspan y="-217.884" x="118.436 126.36623 129.13584 134.31639 139.58661">E.val</tspan></text>
<text xml:space="preserve" transform="matrix(1 0 -0 1 .0000076293949 271.639)" font-size="9.9626" font-family="CMR10"><tspan y="-217.884" x="145.51999 156.0405 161.02179">=19</tspan></text>
<path transform="matrix(1,0,0,-1,210.462,7.776001)" stroke-width=".3985" stroke-linecap="butt" stroke-miterlimit="10" stroke-linejoin="miter" fill="none" stroke="#000000" d="M -11.20174 -6.9791 L -57.04764 -35.5411 "/>
<text xml:space="preserve" transform="matrix(1 0 -0 1 0 271.639)" font-size="9.9626" font-family="CMMI10" font-style="italic"><tspan y="-175.364" x="50.192 58.12223 60.891836 66.07239 71.342609">E.val</tspan></text>
<text xml:space="preserve" transform="matrix(1 0 -0 1 0 271.639)" font-size="9.9626" font-family="CMR10"><tspan y="-175.364" x="77.276 87.7965 92.7778">=15</tspan></text>
<path transform="matrix(1,0,0,-1,210.462,7.776001)" stroke-width=".3985" stroke-linecap="butt" stroke-miterlimit="10" stroke-linejoin="miter" fill="none" stroke="#000000" d="M -79.44676 -49.49933 L -125.29265 -78.06133 "/>
<text xml:space="preserve" transform="matrix(1 0 -0 1 0 271.63899)" font-size="9.9626" font-family="CMMI10" font-style="italic"><tspan y="-132.844" x="50.83 57.475057 60.24466 65.43517 70.70539">T.val</tspan></text>
<text xml:space="preserve" transform="matrix(1 0 -0 1 0 271.63899)" font-size="9.9626" font-family="CMR10"><tspan y="-132.844" x="76.638 87.1585 92.1398">=15</tspan></text>
<path transform="matrix(1,0,0,-1,210.462,7.776001)" stroke-width=".3985" stroke-linecap="butt" stroke-miterlimit="10" stroke-linejoin="miter" fill="none" stroke="#000000" d="M -136.49002 -92.01955 L -136.49002 -120.58156 "/>
<text xml:space="preserve" transform="matrix(1 0 -0 1 -.0000019073487 271.63899)" font-size="9.9626" font-family="CMMI10" font-style="italic"><tspan y="-90.325" x="19.198 25.843056 28.61266 33.803174 39.073389">T.val</tspan></text>
<text xml:space="preserve" transform="matrix(1 0 -0 1 -.0000019073487 271.63899)" font-size="9.9626" font-family="CMR10"><tspan y="-90.325" x="45.007 55.527509">=3</tspan></text>
<path transform="matrix(1,0,0,-1,210.462,7.776001)" stroke-width=".3985" stroke-linecap="butt" stroke-miterlimit="10" stroke-linejoin="miter" fill="none" stroke="#000000" d="M -142.0909 -134.53977 L -165.01392 -163.10178 "/>
<text xml:space="preserve" transform="matrix(1 0 -0 1 -.0000019073487 271.639)" font-size="9.9626" font-family="CMMI10" font-style="italic"><tspan y="-47.805" x="19.183 25.867905 28.637509 33.828023 39.098237">F.val</tspan></text>
<text xml:space="preserve" transform="matrix(1 0 -0 1 -.0000019073487 271.639)" font-size="9.9626" font-family="CMR10"><tspan y="-47.805" x="45.022005 55.54251">=3</tspan></text>
<path transform="matrix(1,0,0,-1,210.462,7.776001)" stroke-width=".3985" stroke-linecap="butt" stroke-miterlimit="10" stroke-linejoin="miter" fill="none" stroke="#000000" d="M -170.61254 -177.05998 L -170.61254 -205.622 "/>
<text xml:space="preserve" transform="matrix(1 0 -0 1 .0000014305115 271.639)" font-size="9.9626" font-family="CMBX10" font-weight="bold"><tspan y="-6.254" x="4.317 10.683102 13.861171 19.589667 22.767737">digit</tspan></text>
<text xml:space="preserve" transform="matrix(1 0 -0 1 .0000014305115 271.639)" font-size="9.9626" font-family="CMMI10" font-style="italic"><tspan y="-6.254" x="27.230999 30.000603 33.168714 37.811285 43.50989 48.700407 53.97062">.lexval</tspan></text>
<text xml:space="preserve" transform="matrix(1 0 -0 1 .0000014305115 271.639)" font-size="9.9626" font-family="CMR10"><tspan y="-6.254" x="59.888 70.4085">=3</tspan></text>
<path transform="matrix(1,0,0,-1,210.462,7.776001)" stroke-width=".3985" stroke-linecap="butt" stroke-miterlimit="10" stroke-linejoin="miter" fill="none" stroke="#000000" d="M -170.61254 -219.58022 L -170.61252 -247.17362 "/>
<text xml:space="preserve" transform="matrix(1 0 -0 1 0 271.639)" font-size="9.9626" font-family="CMSY10" font-style="italic"><tspan y="-91.466" x="71.483">&#x2217;</tspan></text>
<path transform="matrix(1,0,0,-1,210.462,7.776001)" stroke-width=".3985" stroke-linecap="butt" stroke-miterlimit="10" stroke-linejoin="miter" fill="none" stroke="#000000" d="M -136.49002 -134.53977 L -136.49002 -164.24333 "/>
<text xml:space="preserve" transform="matrix(1 0 -0 1 0 271.63899)" font-size="9.9626" font-family="CMMI10" font-style="italic"><tspan y="-90.325" x="87.427 94.11191 96.88151 102.07202 107.34224">F.val</tspan></text>
<text xml:space="preserve" transform="matrix(1 0 -0 1 0 271.63899)" font-size="9.9626" font-family="CMR10"><tspan y="-90.325" x="113.26601 123.78651">=5</tspan></text>
<path transform="matrix(1,0,0,-1,210.462,7.776001)" stroke-width=".3985" stroke-linecap="butt" stroke-miterlimit="10" stroke-linejoin="miter" fill="none" stroke="#000000" d="M -130.88916 -134.53977 L -107.96614 -163.10178 "/>
<text xml:space="preserve" transform="matrix(1 0 -0 1 .0000076293949 271.639)" font-size="9.9626" font-family="CMBX10" font-weight="bold"><tspan y="-48.774" x="72.561 78.9271 82.10517 87.833667 91.011737">digit</tspan></text>
<text xml:space="preserve" transform="matrix(1 0 -0 1 .0000076293949 271.639)" font-size="9.9626" font-family="CMMI10" font-style="italic"><tspan y="-48.774" x="95.475 98.2446 101.412708 106.055278 111.75388 116.9444 122.214618">.lexval</tspan></text>
<text xml:space="preserve" transform="matrix(1 0 -0 1 .0000076293949 271.639)" font-size="9.9626" font-family="CMR10"><tspan y="-48.774" x="128.133 138.6535">=5</tspan></text>
<path transform="matrix(1,0,0,-1,210.462,7.776001)" stroke-width=".3985" stroke-linecap="butt" stroke-miterlimit="10" stroke-linejoin="miter" fill="none" stroke="#000000" d="M -102.36751 -177.05998 L -102.36751 -204.65338 "/>
<text xml:space="preserve" transform="matrix(1 0 -0 1 0 271.63899)" font-size="9.9626" font-family="CMR10"><tspan y="-176.333" x="138.343">+</tspan></text>
<path transform="matrix(1,0,0,-1,210.462,7.776001)" stroke-width=".3985" stroke-linecap="butt" stroke-miterlimit="10" stroke-linejoin="miter" fill="none" stroke="#000000" d="M -68.24501 -49.49933 L -68.24498 -78.19969 "/>
<text xml:space="preserve" transform="matrix(1 0 -0 1 0 271.639)" font-size="9.9626" font-family="CMMI10" font-style="italic"><tspan y="-175.364" x="189.809 196.45406 199.22367 204.41419 209.6844">T.val</tspan></text>
<text xml:space="preserve" transform="matrix(1 0 -0 1 0 271.639)" font-size="9.9626" font-family="CMR10"><tspan y="-175.364" x="215.617 226.13751">=4</tspan></text>
<path transform="matrix(1,0,0,-1,210.462,7.776001)" stroke-width=".3985" stroke-linecap="butt" stroke-miterlimit="10" stroke-linejoin="miter" fill="none" stroke="#000000" d="M -57.04327 -49.49933 L -11.19733 -78.06133 "/>
<text xml:space="preserve" transform="matrix(1 0 -0 1 0 271.63899)" font-size="9.9626" font-family="CMMI10" font-style="italic"><tspan y="-132.844" x="189.793 196.47789 199.2475 204.43802 209.70824">F.val</tspan></text>
<text xml:space="preserve" transform="matrix(1 0 -0 1 0 271.63899)" font-size="9.9626" font-family="CMR10"><tspan y="-132.844" x="215.633 226.1535">=4</tspan></text>
<path transform="matrix(1,0,0,-1,210.462,7.776001)" stroke-width=".3985" stroke-linecap="butt" stroke-miterlimit="10" stroke-linejoin="miter" fill="none" stroke="#000000" d="M .00003 -92.01955 L .00003 -120.58156 "/>
<text xml:space="preserve" transform="matrix(1 0 -0 1 0 271.639)" font-size="9.9626" font-family="CMBX10" font-weight="bold"><tspan y="-91.293" x="174.927 181.2931 184.47118 190.19968 193.37775">digit</tspan></text>
<text xml:space="preserve" transform="matrix(1 0 -0 1 0 271.639)" font-size="9.9626" font-family="CMMI10" font-style="italic"><tspan y="-91.293" x="197.841 200.61061 203.77872 208.4213 214.1199 219.31043 224.58065">.lexval</tspan></text>
<text xml:space="preserve" transform="matrix(1 0 -0 1 0 271.639)" font-size="9.9626" font-family="CMR10"><tspan y="-91.293" x="230.49901 241.01952">=4</tspan></text>
<path transform="matrix(1,0,0,-1,210.462,7.776001)" stroke-width=".3985" stroke-linecap="butt" stroke-miterlimit="10" stroke-linejoin="miter" fill="none" stroke="#000000" d="M .00003 -134.53977 L .00003 -162.13317 "/>
<text xml:space="preserve" transform="matrix(1 0 -0 1 0 271.639)" font-size="9.9626" font-family="CMBX10" font-weight="bold"><tspan y="-219.129" x="275.523">n</tspan></text>
<path transform="matrix(1,0,0,-1,210.462,7.776001)" stroke-width=".3985" stroke-linecap="butt" stroke-miterlimit="10" stroke-linejoin="miter" fill="none" stroke="#000000" d="M 11.1963 -6.9791 L 61.54271 -38.34752 "/>
</g>
</svg>
