<?xml version="1.0" encoding="UTF-8" standalone="no"?>
<!DOCTYPE svg PUBLIC "-//W3C//DTD SVG 1.1//EN" "http://www.w3.org/Graphics/SVG/1.1/DTD/svg11.dtd">
<svg xmlns="http://www.w3.org/2000/svg" xmlns:xlink="http://www.w3.org/1999/xlink" version="1.1" width="270.569pt" height="144.08pt" viewBox="0 0 270.569 144.08">
<g enable-background="new">
<text xml:space="preserve" transform="matrix(1 0 -0 1 0 144.08)" font-size="9.9626" font-family="CMMI10" font-style="italic"><tspan y="-132.844" x="83.457 90.10206 92.87166 98.06217 103.33239">T.val</tspan></text>
<text xml:space="preserve" transform="matrix(1 0 -0 1 0 144.08)" font-size="9.9626" font-family="CMR10"><tspan y="-132.844" x="109.266 119.7865 124.7678">=15</tspan></text>
<text xml:space="preserve" transform="matrix(1 0 -0 1 -.0000019073487 144.08)" font-size="9.9626" font-family="CMMI10" font-style="italic"><tspan y="-90.325" x="19.183 25.867905 28.637509 33.828023 39.098237">F.val</tspan></text>
<text xml:space="preserve" transform="matrix(1 0 -0 1 -.0000019073487 144.08)" font-size="9.9626" font-family="CMR10"><tspan y="-90.325" x="45.022005 55.54251">=3</tspan></text>
<path transform="matrix(1,0,0,-1,106.601,7.776001)" stroke-width=".3985" stroke-linecap="butt" stroke-miterlimit="10" stroke-linejoin="miter" fill="none" stroke="#000000" d="M -10.95638 -6.9791 L -55.79836 -35.5411 "/>
<text xml:space="preserve" transform="matrix(1 0 -0 1 .0000014305115 144.08)" font-size="9.9626" font-family="CMBX10" font-weight="bold"><tspan y="-48.774" x="4.317 10.683102 13.861171 19.589667 22.767737">digit</tspan></text>
<text xml:space="preserve" transform="matrix(1 0 -0 1 .0000014305115 144.08)" font-size="9.9626" font-family="CMMI10" font-style="italic"><tspan y="-48.774" x="27.230999 30.000603 33.168714 37.811285 43.50989 48.700407 53.97062">.lexval</tspan></text>
<text xml:space="preserve" transform="matrix(1 0 -0 1 .0000014305115 144.08)" font-size="9.9626" font-family="CMR10"><tspan y="-48.774" x="59.888 70.4085">=3</tspan></text>
<path transform="matrix(1,0,0,-1,106.601,7.776001)" stroke-width=".3985" stroke-linecap="butt" stroke-miterlimit="10" stroke-linejoin="miter" fill="none" stroke="#000000" d="M -66.75058 -49.49933 L -66.75058 -77.09273 "/>
<text xml:space="preserve" transform="matrix(1 0 -0 1 0 144.08)" font-size="9.9626" font-family="CMMI10" font-style="italic"><tspan y="-99.363" x="147.938">T</tspan></text>
<text xml:space="preserve" transform="matrix(1 0 -0 1 0 144.08)" font-size="4.9813" font-family="CMSY5" font-style="italic"><tspan y="-106.483" x="155.144">&#x2032;</tspan></text>
<text xml:space="preserve" transform="matrix(1 0 -0 1 0 144.08)" font-size="9.9626" font-family="CMMI10" font-style="italic"><tspan y="-99.363" x="158.33699 161.1066 164.5437 170.52126">.inh</tspan></text>
<text xml:space="preserve" transform="matrix(1 0 -0 1 0 144.08)" font-size="9.9626" font-family="CMR10"><tspan y="-99.363" x="179.02399 189.5445">=3</tspan></text>
<text xml:space="preserve" transform="matrix(1 0 -0 1 0 144.08)" font-size="9.9626" font-family="CMMI10" font-style="italic"><tspan y="-81.904" x="147.19899">T</tspan></text>
<text xml:space="preserve" transform="matrix(1 0 -0 1 0 144.08)" font-size="4.9813" font-family="CMSY5" font-style="italic"><tspan y="-89.024" x="154.40399">&#x2032;</tspan></text>
<text xml:space="preserve" transform="matrix(1 0 -0 1 0 144.08)" font-size="9.9626" font-family="CMMI10" font-style="italic"><tspan y="-81.904" x="157.59699 160.3666 165.03905 170.27938">.syn</tspan></text>
<text xml:space="preserve" transform="matrix(1 0 -0 1 0 144.08)" font-size="9.9626" font-family="CMR10"><tspan y="-81.904" x="179.02399 189.5445 194.52579">=15</tspan></text>
<path transform="matrix(1,0,0,-1,106.601,7.776001)" stroke-width=".3985" stroke-linecap="butt" stroke-miterlimit="10" stroke-linejoin="miter" fill="none" stroke="#000000" d="M 10.95468 -6.9791 L 37.07855 -23.62201 "/>
<text xml:space="preserve" transform="matrix(1 0 -0 1 0 144.08)" font-size="9.9626" font-family="CMSY10" font-style="italic"><tspan y="-48.947" x="104.11">&#x2217;</tspan></text>
<path transform="matrix(1,0,0,-1,106.601,7.776001)" stroke-width=".3985" stroke-linecap="butt" stroke-miterlimit="10" stroke-linejoin="miter" fill="none" stroke="#000000" d="M 37.07855 -61.40483 L 6.01053 -81.21234 "/>
<text xml:space="preserve" transform="matrix(1 0 -0 1 0 144.08)" font-size="9.9626" font-family="CMMI10" font-style="italic"><tspan y="-47.805" x="152.682 159.3669 162.1365 167.32703 172.59725">F.val</tspan></text>
<text xml:space="preserve" transform="matrix(1 0 -0 1 0 144.08)" font-size="9.9626" font-family="CMR10"><tspan y="-47.805" x="178.522 189.04251">=5</tspan></text>
<path transform="matrix(1,0,0,-1,106.601,7.776001)" stroke-width=".3985" stroke-linecap="butt" stroke-miterlimit="10" stroke-linejoin="miter" fill="none" stroke="#000000" d="M 66.75063 -61.50677 L 66.75063 -78.06133 "/>
<text xml:space="preserve" transform="matrix(1 0 -0 1 0 144.08)" font-size="9.9626" font-family="CMBX10" font-weight="bold"><tspan y="-6.254" x="137.816 144.1821 147.36017 153.08867 156.26674">digit</tspan></text>
<text xml:space="preserve" transform="matrix(1 0 -0 1 0 144.08)" font-size="9.9626" font-family="CMMI10" font-style="italic"><tspan y="-6.254" x="160.73 163.4996 166.66771 171.31029 177.0089 182.19942 187.46964">.lexval</tspan></text>
<text xml:space="preserve" transform="matrix(1 0 -0 1 0 144.08)" font-size="9.9626" font-family="CMR10"><tspan y="-6.254" x="193.388 203.90851">=5</tspan></text>
<path transform="matrix(1,0,0,-1,106.601,7.776001)" stroke-width=".3985" stroke-linecap="butt" stroke-miterlimit="10" stroke-linejoin="miter" fill="none" stroke="#000000" d="M 66.75063 -92.01955 L 66.75064 -119.61295 "/>
<text xml:space="preserve" transform="matrix(1 0 -0 1 0 144.08)" font-size="9.9626" font-family="CMMI10" font-style="italic"><tspan y="-56.843" x="214.688">T</tspan></text>
<text xml:space="preserve" transform="matrix(1 0 -0 1 0 144.08)" font-size="4.9813" font-family="CMSY5" font-style="italic"><tspan y="-63.962999" x="221.894">&#x2032;</tspan></text>
<text xml:space="preserve" transform="matrix(1 0 -0 1 0 144.08)" font-size="9.9626" font-family="CMMI10" font-style="italic"><tspan y="-56.843" x="225.08699 227.8566 231.2937 237.27126">.inh</tspan></text>
<text xml:space="preserve" transform="matrix(1 0 -0 1 0 144.08)" font-size="9.9626" font-family="CMR10"><tspan y="-56.843" x="245.77399 256.2945 261.2758">=15</tspan></text>
<text xml:space="preserve" transform="matrix(1 0 -0 1 0 144.08)" font-size="9.9626" font-family="CMMI10" font-style="italic"><tspan y="-39.384" x="213.94899">T</tspan></text>
<text xml:space="preserve" transform="matrix(1 0 -0 1 0 144.08)" font-size="4.9813" font-family="CMSY5" font-style="italic"><tspan y="-46.503999" x="221.15399">&#x2032;</tspan></text>
<text xml:space="preserve" transform="matrix(1 0 -0 1 0 144.08)" font-size="9.9626" font-family="CMMI10" font-style="italic"><tspan y="-39.384" x="224.34699 227.1166 231.78905 237.02938">.syn</tspan></text>
<text xml:space="preserve" transform="matrix(1 0 -0 1 0 144.08)" font-size="9.9626" font-family="CMR10"><tspan y="-39.384" x="245.77399 256.2945 261.2758">=15</tspan></text>
<path transform="matrix(1,0,0,-1,106.601,7.776001)" stroke-width=".3985" stroke-linecap="butt" stroke-miterlimit="10" stroke-linejoin="miter" fill="none" stroke="#000000" d="M 96.42271 -61.4139 L 103.82916 -66.14223 "/>
<text xml:space="preserve" transform="matrix(1 0 -0 1 0 144.08)" font-size="9.9626" font-family="CMMI10" font-style="italic"><tspan y="-6.6" x="237.778">&#x03b5;</tspan></text>
<path transform="matrix(1,0,0,-1,106.601,7.776001)" stroke-width=".3985" stroke-linecap="butt" stroke-miterlimit="10" stroke-linejoin="miter" fill="none" stroke="#000000" d="M 133.50124 -104.027 L 133.50125 -121.89609 "/>
</g>
</svg>
