<?xml version="1.0" encoding="UTF-8" standalone="no"?>
<!DOCTYPE svg PUBLIC "-//W3C//DTD SVG 1.1//EN" "http://www.w3.org/Graphics/SVG/1.1/DTD/svg11.dtd">
<svg xmlns="http://www.w3.org/2000/svg" xmlns:xlink="http://www.w3.org/1999/xlink" version="1.1" width="408.615pt" height="185.838pt" viewBox="0 0 408.615 185.838">
<g enable-background="new">
<text xml:space="preserve" transform="matrix(1 0 -0 1 0 185.83802)" font-size="9.9626" font-family="CMMI10" font-style="italic"><tspan y="-174.05" x="47.583 54.228055 56.997659">T.t</tspan></text>
<text xml:space="preserve" transform="matrix(1 0 -0 1 0 185.83802)" font-size="9.9626" font-family="CMR10"><tspan y="-174.05" x="63.368">=</tspan></text>
<text xml:space="preserve" transform="matrix(1 0 -0 1 0 185.83802)" font-size="9.9626" font-family="CMMI10" font-style="italic"><tspan y="-174.05" x="73.884 79.15422 83.92631 88.68843 93.95865">array</tspan></text>
<text xml:space="preserve" transform="matrix(1 0 -0 1 0 185.83802)" font-size="9.9626" font-family="CMR10"><tspan y="-174.05" x="99.201007 103.076457">(2</tspan></text>
<text xml:space="preserve" transform="matrix(1 0 -0 1 0 185.83802)" font-size="9.9626" font-family="CMMI10" font-style="italic"><tspan y="-174.05" x="108.05701 112.490367 117.76058 122.522708 127.29479 132.565">,array</tspan></text>
<text xml:space="preserve" transform="matrix(1 0 -0 1 0 185.83802)" font-size="9.9626" font-family="CMR10"><tspan y="-174.05" x="137.802 141.67746">(3</tspan></text>
<text xml:space="preserve" transform="matrix(1 0 -0 1 0 185.83802)" font-size="9.9626" font-family="CMMI10" font-style="italic"><tspan y="-174.05" x="146.657 151.09037 154.52747 160.50502 164.10152 168.7441 173.85492 178.4975">,integer</tspan></text>
<text xml:space="preserve" transform="matrix(1 0 -0 1 0 185.83802)" font-size="9.9626" font-family="CMR10"><tspan y="-174.05" x="183.254 187.12946">))</tspan></text>
<text xml:space="preserve" transform="matrix(1 0 -0 1 .0000014305115 185.83802)" font-size="9.9626" font-family="CMMI10" font-style="italic"><tspan y="-131.585" x="4.317 12.376744 15.146347">B.t</tspan></text>
<text xml:space="preserve" transform="matrix(1 0 -0 1 .0000014305115 185.83802)" font-size="9.9626" font-family="CMR10"><tspan y="-131.585" x="21.505999">=</tspan></text>
<text xml:space="preserve" transform="matrix(1 0 -0 1 .0000014305115 185.83802)" font-size="9.9626" font-family="CMMI10" font-style="italic"><tspan y="-131.585" x="32.022 35.459096 41.436655 45.033155 49.675725 54.786539 59.429109">integer</tspan></text>
<path transform="matrix(1,0,0,-1,119.293,9.298004)" stroke-width=".3985" stroke-linecap="butt" stroke-miterlimit="10" stroke-linejoin="miter" fill="none" stroke="#000000" d="M -16.99889 -8.50119 L -69.26149 -34.62787 "/>
<text xml:space="preserve" transform="matrix(1 0 -0 1 -.0000038146974 185.83802)" font-size="9.9626" font-family="CMBX10" font-weight="bold"><tspan y="-88.042" x="27.411 30.58907 36.636369">int</tspan></text>
<path transform="matrix(1,0,0,-1,119.293,9.298004)" stroke-width=".3985" stroke-linecap="butt" stroke-miterlimit="10" stroke-linejoin="miter" fill="none" stroke="#000000" d="M -85.04039 -50.41257 L -85.04037 -78.06133 "/>
<text xml:space="preserve" transform="matrix(1 0 -0 1 0 185.838)" font-size="9.9626" font-family="CMMI10" font-style="italic"><tspan y="-139.102" x="131.97 139.25267 142.02228">C.b</tspan></text>
<text xml:space="preserve" transform="matrix(1 0 -0 1 0 185.838)" font-size="9.9626" font-family="CMR10"><tspan y="-139.102" x="149.06">=</tspan></text>
<text xml:space="preserve" transform="matrix(1 0 -0 1 0 185.838)" font-size="9.9626" font-family="CMMI10" font-style="italic"><tspan y="-139.102" x="159.576 163.0131 168.99066 172.58716 177.22974 182.34056 186.98314">integer</tspan><tspan y="-124.158008" x="132.64801 139.93068 142.70029">C.t</tspan></text>
<text xml:space="preserve" transform="matrix(1 0 -0 1 0 185.838)" font-size="9.9626" font-family="CMR10"><tspan y="-124.158008" x="149.06002">=</tspan></text>
<text xml:space="preserve" transform="matrix(1 0 -0 1 0 185.838)" font-size="9.9626" font-family="CMMI10" font-style="italic"><tspan y="-124.158008" x="159.57602 164.84624 169.61832 174.38045 179.65067">array</tspan></text>
<text xml:space="preserve" transform="matrix(1 0 -0 1 0 185.838)" font-size="9.9626" font-family="CMR10"><tspan y="-124.158008" x="184.89302 188.76848">(2</tspan></text>
<text xml:space="preserve" transform="matrix(1 0 -0 1 0 185.838)" font-size="9.9626" font-family="CMMI10" font-style="italic"><tspan y="-124.158008" x="193.74903 198.18239 203.4526 208.21474 212.98682 218.25704">,array</tspan></text>
<text xml:space="preserve" transform="matrix(1 0 -0 1 0 185.838)" font-size="9.9626" font-family="CMR10"><tspan y="-124.158008" x="223.49402 227.36948">(3</tspan></text>
<text xml:space="preserve" transform="matrix(1 0 -0 1 0 185.838)" font-size="9.9626" font-family="CMMI10" font-style="italic"><tspan y="-124.158008" x="232.35002 236.78339 240.22049 246.19805 249.79454 254.43712 259.5479 264.1905">,integer</tspan></text>
<text xml:space="preserve" transform="matrix(1 0 -0 1 0 185.838)" font-size="9.9626" font-family="CMR10"><tspan y="-124.158008" x="268.946 272.82148">))</tspan></text>
<path transform="matrix(1,0,0,-1,119.293,9.298004)" stroke-width=".3985" stroke-linecap="butt" stroke-miterlimit="10" stroke-linejoin="miter" fill="none" stroke="#000000" d="M 17.00381 -8.50119 L 51.1138 -25.55066 "/>
<text xml:space="preserve" transform="matrix(1 0 -0 1 0 185.83802)" font-size="9.9626" font-family="CMR10"><tspan y="-89.01" x="117.909">[</tspan></text>
<path transform="matrix(1,0,0,-1,119.293,9.298004)" stroke-width=".3985" stroke-linecap="butt" stroke-miterlimit="10" stroke-linejoin="miter" fill="none" stroke="#000000" d="M 51.11226 -59.48978 L 4.90363 -82.59122 "/>
<text xml:space="preserve" transform="matrix(1 0 -0 1 -.000015258789 185.83802)" font-size="9.9626" font-family="CMR10"><tspan y="-88.291" x="159.322">2</tspan></text>
<path transform="matrix(1,0,0,-1,119.293,9.298004)" stroke-width=".3985" stroke-linecap="butt" stroke-miterlimit="10" stroke-linejoin="miter" fill="none" stroke="#000000" d="M 68.0743 -59.48978 L 48.53082 -79.03214 "/>
<text xml:space="preserve" transform="matrix(1 0 -0 1 0 185.83802)" font-size="9.9626" font-family="CMR10"><tspan y="-89.01" x="202.949">]</tspan></text>
<path transform="matrix(1,0,0,-1,119.293,9.298004)" stroke-width=".3985" stroke-linecap="butt" stroke-miterlimit="10" stroke-linejoin="miter" fill="none" stroke="#000000" d="M 85.04048 -59.48978 L 85.04053 -76.53923 "/>
<text xml:space="preserve" transform="matrix(1 0 -0 1 .000015258789 185.83802)" font-size="9.9626" font-family="CMMI10" font-style="italic"><tspan y="-96.582" x="238.247 245.52967 248.29927">C.b</tspan></text>
<text xml:space="preserve" transform="matrix(1 0 -0 1 .000015258789 185.83802)" font-size="9.9626" font-family="CMR10"><tspan y="-96.582" x="255.33699">=</tspan></text>
<text xml:space="preserve" transform="matrix(1 0 -0 1 .000015258789 185.83802)" font-size="9.9626" font-family="CMMI10" font-style="italic"><tspan y="-96.582" x="265.853 269.2901 275.26768 278.86418 283.50675 288.61756 293.26014">integer</tspan><tspan y="-81.638" x="238.925 246.20767 248.97728">C.t</tspan></text>
<text xml:space="preserve" transform="matrix(1 0 -0 1 .000015258789 185.83802)" font-size="9.9626" font-family="CMR10"><tspan y="-81.638" x="255.337">=</tspan></text>
<text xml:space="preserve" transform="matrix(1 0 -0 1 .000015258789 185.83802)" font-size="9.9626" font-family="CMMI10" font-style="italic"><tspan y="-81.638" x="265.853 271.1232 275.8953 280.6574 285.9276">array</tspan></text>
<text xml:space="preserve" transform="matrix(1 0 -0 1 .000015258789 185.83802)" font-size="9.9626" font-family="CMR10"><tspan y="-81.638" x="291.16999 295.04545">(3</tspan></text>
<text xml:space="preserve" transform="matrix(1 0 -0 1 .000015258789 185.83802)" font-size="9.9626" font-family="CMMI10" font-style="italic"><tspan y="-81.638" x="300.02598 304.45933 307.89643 313.874 317.4705 322.11308 327.22389 331.86647">,integer</tspan></text>
<text xml:space="preserve" transform="matrix(1 0 -0 1 .000015258789 185.83802)" font-size="9.9626" font-family="CMR10"><tspan y="-81.638" x="336.62199">)</tspan></text>
<path transform="matrix(1,0,0,-1,119.293,9.298004)" stroke-width=".3985" stroke-linecap="butt" stroke-miterlimit="10" stroke-linejoin="miter" fill="none" stroke="#000000" d="M 118.98244 -59.48978 L 136.1543 -68.07088 "/>
<text xml:space="preserve" transform="matrix(1 0 -0 1 0 185.838)" font-size="9.9626" font-family="CMR10"><tspan y="-46.491" x="202.949">[</tspan></text>
<path transform="matrix(1,0,0,-1,119.293,9.298004)" stroke-width=".3985" stroke-linecap="butt" stroke-miterlimit="10" stroke-linejoin="miter" fill="none" stroke="#000000" d="M 136.15274 -102.01 L 89.9441 -125.11143 "/>
<text xml:space="preserve" transform="matrix(1 0 -0 1 0 185.838)" font-size="9.9626" font-family="CMR10"><tspan y="-45.771" x="244.361">3</tspan></text>
<path transform="matrix(1,0,0,-1,119.293,9.298004)" stroke-width=".3985" stroke-linecap="butt" stroke-miterlimit="10" stroke-linejoin="miter" fill="none" stroke="#000000" d="M 153.11479 -102.01 L 133.5713 -121.55235 "/>
<text xml:space="preserve" transform="matrix(1 0 -0 1 0 185.838)" font-size="9.9626" font-family="CMR10"><tspan y="-46.491" x="287.988">]</tspan></text>
<path transform="matrix(1,0,0,-1,119.293,9.298004)" stroke-width=".3985" stroke-linecap="butt" stroke-miterlimit="10" stroke-linejoin="miter" fill="none" stroke="#000000" d="M 170.08098 -102.01 L 170.08103 -119.05945 "/>
<text xml:space="preserve" transform="matrix(1 0 -0 1 0 185.838)" font-size="9.9626" font-family="CMMI10" font-style="italic"><tspan y="-54.062" x="344.524 351.80665 354.57624">C.b</tspan></text>
<text xml:space="preserve" transform="matrix(1 0 -0 1 0 185.838)" font-size="9.9626" font-family="CMR10"><tspan y="-54.062" x="361.61399">=</tspan></text>
<text xml:space="preserve" transform="matrix(1 0 -0 1 0 185.838)" font-size="9.9626" font-family="CMMI10" font-style="italic"><tspan y="-54.062" x="372.12998 375.56709 381.54466 385.14115 389.78373 394.89454 399.5371">integer</tspan><tspan y="-39.118" x="345.20198 352.48463 355.2542">C.t</tspan></text>
<text xml:space="preserve" transform="matrix(1 0 -0 1 0 185.838)" font-size="9.9626" font-family="CMR10"><tspan y="-39.118" x="361.61396">=</tspan></text>
<text xml:space="preserve" transform="matrix(1 0 -0 1 0 185.838)" font-size="9.9626" font-family="CMMI10" font-style="italic"><tspan y="-39.118" x="372.12995 375.56706 381.54463 385.1411 389.7837 394.8945 399.53709">integer</tspan></text>
<path transform="matrix(1,0,0,-1,119.293,9.298004)" stroke-width=".3985" stroke-linecap="butt" stroke-miterlimit="10" stroke-linejoin="miter" fill="none" stroke="#000000" d="M 203.99211 -102.01 L 221.71407 -110.8743 "/>
<text xml:space="preserve" transform="matrix(1 0 -0 1 0 185.83802)" font-size="9.9626" font-family="CMMI10" font-style="italic"><tspan y="-4.317" x="372.088">&#x03b5;</tspan></text>
<path transform="matrix(1,0,0,-1,119.293,9.298004)" stroke-width=".3985" stroke-linecap="butt" stroke-miterlimit="10" stroke-linejoin="miter" fill="none" stroke="#000000" d="M 255.12146 -144.53022 L 255.12148 -164.4163 "/>
</g>
</svg>
