<?xml version="1.0" encoding="UTF-8" standalone="no"?>
<!DOCTYPE svg PUBLIC "-//W3C//DTD SVG 1.1//EN" "http://www.w3.org/Graphics/SVG/1.1/DTD/svg11.dtd">
<svg xmlns="http://www.w3.org/2000/svg" xmlns:xlink="http://www.w3.org/1999/xlink" version="1.1" width="283.483pt" height="283.633pt" viewBox="0 0 283.483 283.633">
<g enable-background="new">
<text xml:space="preserve" transform="matrix(1 0 -0 1 0 283.633)" font-size="9.9626" font-family="CMMI10" font-style="italic"><tspan y="-272.397" x="148.399 156.32924 159.09885 165.0764 169.90827 175.09879">E.node</tspan></text>
<text xml:space="preserve" transform="matrix(1 0 -0 1 0 283.633)" font-size="9.9626" font-family="CMMI10" font-style="italic"><tspan y="-229.878" x="80.368 88.298229 91.067829 97.04539 101.87725 107.067768">E.node</tspan></text>
<path transform="matrix(1,0,0,-1,164.064,7.776001)" stroke-width=".3985" stroke-linecap="butt" stroke-dasharray=".3985,1.99255" stroke-miterlimit="10" stroke-linejoin="miter" fill="none" stroke="#000000" d="M -11.16682 -6.9791 L -56.86974 -35.5411 "/>
<text xml:space="preserve" transform="matrix(1 0 -0 1 -.0000038146974 283.633)" font-size="9.9626" font-family="CMMI10" font-style="italic"><tspan y="-187.358" x="46.352 54.28223 57.051836 63.029397 67.86126 73.05177">E.node</tspan></text>
<path transform="matrix(1,0,0,-1,164.064,7.776001)" stroke-width=".3985" stroke-linecap="butt" stroke-dasharray=".3985,1.99255" stroke-miterlimit="10" stroke-linejoin="miter" fill="none" stroke="#000000" d="M -73.6156 -49.49933 L -96.46713 -78.06133 "/>
<text xml:space="preserve" transform="matrix(1 0 -0 1 -.0000038146974 283.633)" font-size="9.9626" font-family="CMMI10" font-style="italic"><tspan y="-144.838" x="46.99 53.635057 56.40466 62.382219 67.21408 72.404598">T.node</tspan></text>
<path transform="matrix(1,0,0,-1,164.064,7.776001)" stroke-width=".3985" stroke-linecap="butt" stroke-dasharray=".3985,1.99255" stroke-miterlimit="10" stroke-linejoin="miter" fill="none" stroke="#000000" d="M -102.0483 -92.01955 L -102.0483 -120.58156 "/>
<text xml:space="preserve" transform="matrix(1 0 -0 1 -.0000038146974 283.633)" font-size="9.9626" font-family="CMBX10" font-weight="bold"><tspan y="-102.319" x="57.243 60.42107">id</tspan></text>
<path transform="matrix(1,0,0,-1,164.064,7.776001)" stroke-width=".3985" stroke-linecap="butt" stroke-dasharray=".3985,1.99255" stroke-miterlimit="10" stroke-linejoin="miter" fill="none" stroke="#000000" d="M -102.0483 -134.53977 L -102.04828 -163.10178 "/>
<text xml:space="preserve" transform="matrix(1 0 -0 1 0 283.633)" font-size="9.9626" font-family="CMSY10" font-style="italic"><tspan y="-188.327" x="92.158">&#x2212;</tspan></text>
<path transform="matrix(1,0,0,-1,164.064,7.776001)" stroke-width=".3985" stroke-linecap="butt" stroke-dasharray=".3985,1.99255" stroke-miterlimit="10" stroke-linejoin="miter" fill="none" stroke="#000000" d="M -68.0322 -49.49933 L -68.0322 -78.19969 "/>
<text xml:space="preserve" transform="matrix(1 0 -0 1 -.0000076293949 283.633)" font-size="9.9626" font-family="CMMI10" font-style="italic"><tspan y="-187.358" x="115.022 121.66706 124.43666 130.41422 135.24608 140.4366">T.node</tspan></text>
<path transform="matrix(1,0,0,-1,164.064,7.776001)" stroke-width=".3985" stroke-linecap="butt" stroke-dasharray=".3985,1.99255" stroke-miterlimit="10" stroke-linejoin="miter" fill="none" stroke="#000000" d="M -62.44878 -49.49933 L -39.59726 -78.06133 "/>
<text xml:space="preserve" transform="matrix(1 0 -0 1 -.0000076293949 283.633)" font-size="9.9626" font-family="CMBX10" font-weight="bold"><tspan y="-146.084" x="119.068 125.1153 131.4814">num</tspan></text>
<path transform="matrix(1,0,0,-1,164.064,7.776001)" stroke-width=".3985" stroke-linecap="butt" stroke-dasharray=".3985,1.99255" stroke-miterlimit="10" stroke-linejoin="miter" fill="none" stroke="#000000" d="M -34.0161 -92.01955 L -34.0161 -121.8269 "/>
<text xml:space="preserve" transform="matrix(1 0 -0 1 0 283.633)" font-size="9.9626" font-family="CMR10"><tspan y="-230.846" x="160.189">+</tspan></text>
<path transform="matrix(1,0,0,-1,164.064,7.776001)" stroke-width=".3985" stroke-linecap="butt" stroke-dasharray=".3985,1.99255" stroke-miterlimit="10" stroke-linejoin="miter" fill="none" stroke="#000000" d="M 0 -6.9791 L 0 -35.67947 "/>
<text xml:space="preserve" transform="matrix(1 0 -0 1 0 283.633)" font-size="9.9626" font-family="CMMI10" font-style="italic"><tspan y="-229.878" x="217.069 223.71405 226.48366 232.46121 237.29308 242.4836">T.node</tspan></text>
<path transform="matrix(1,0,0,-1,164.064,7.776001)" stroke-width=".3985" stroke-linecap="butt" stroke-dasharray=".3985,1.99255" stroke-miterlimit="10" stroke-linejoin="miter" fill="none" stroke="#000000" d="M 11.16682 -6.9791 L 56.86974 -35.5411 "/>
<text xml:space="preserve" transform="matrix(1 0 -0 1 0 283.633)" font-size="9.9626" font-family="CMBX10" font-weight="bold"><tspan y="-187.358" x="227.321 230.49907">id</tspan></text>
<path transform="matrix(1,0,0,-1,164.064,7.776001)" stroke-width=".3985" stroke-linecap="butt" stroke-dasharray=".3985,1.99255" stroke-miterlimit="10" stroke-linejoin="miter" fill="none" stroke="#000000" d="M 68.0322 -49.49933 L 68.0322 -78.06133 "/>
<path transform="matrix(1,0,0,-1,164.064,7.776001)" stroke-width=".3985" stroke-linecap="butt" stroke-miterlimit="10" stroke-linejoin="miter" fill="none" stroke="#000000" d="M -8.04564 -164.68943 L 37.0955 -164.68943 L 37.0955 -144.76532 L -8.04564 -144.76532 Z "/>
<text xml:space="preserve" transform="matrix(1 0 -0 1 0 283.633)" font-size="9.9626" font-family="CMR10"><tspan y="-118.641" x="162.659">+</tspan></text>
<path transform="matrix(1,0,0,-1,164.064,7.776001)" stroke-width=".3985" stroke-linecap="butt" stroke-miterlimit="10" stroke-linejoin="miter" fill="none" stroke="#000000" d="M -42.06174 -207.20964 L 3.079399 -207.20964 L 3.079399 -187.28554 L -42.06174 -187.28554 Z "/>
<text xml:space="preserve" transform="matrix(1 0 -0 1 .000015258789 283.633)" font-size="9.9626" font-family="CMSY10" font-style="italic"><tspan y="-76.121" x="128.644">&#x2212;</tspan></text>
<path transform="matrix(1,0,0,-1,164.064,7.776001)" stroke-width=".3985" stroke-linecap="butt" stroke-miterlimit="10" stroke-linejoin="miter" fill="none" stroke="#000000" d="M -70.9497 -249.86824 L -36.064809 -249.86824 L -36.064809 -229.6674 L -70.9497 -229.6674 Z "/>
<text xml:space="preserve" transform="matrix(1 0 -0 1 0 283.633)" font-size="9.9626" font-family="CMBX10" font-weight="bold"><tspan y="-32.633" x="99.756 102.93407">id</tspan></text>
<path transform="matrix(1,0,0,-1,164.064,7.776001)" stroke-width=".3985" stroke-linecap="butt" stroke-miterlimit="10" stroke-linejoin="miter" fill="none" stroke="#000000" d="M -9.12344 -249.61917 L 38.17331 -249.61917 L 38.17331 -229.91648 L -9.12344 -229.91648 Z "/>
<text xml:space="preserve" transform="matrix(1 0 -0 1 .000015258789 283.633)" font-size="9.9626" font-family="CMBX10" font-weight="bold"><tspan y="-32.882" x="161.581 167.6283 173.9944">num</tspan></text>
<text xml:space="preserve" transform="matrix(1 0 -0 1 .000015258789 283.633)" font-size="9.9626" font-family="CMR10"><tspan y="-32.882" x="190.398">4</tspan></text>
<path transform="matrix(1,0,0,-1,164.064,7.776001)" stroke-width=".3985" stroke-linecap="butt" stroke-miterlimit="10" stroke-linejoin="miter" fill="none" stroke="#000000" d="M 31.09857 -207.34803 L 65.98346 -207.34803 L 65.98346 -187.14719 L 31.09857 -187.14719 Z "/>
<text xml:space="preserve" transform="matrix(1 0 -0 1 0 283.633)" font-size="9.9626" font-family="CMBX10" font-weight="bold"><tspan y="-75.152" x="201.803 204.98107">id</tspan></text>
<path transform="matrix(1,0,0,-1,164.064,7.776001)" stroke-width=".3985" stroke-linecap="butt" stroke-miterlimit="10" stroke-linejoin="miter" fill="none" stroke="#000000" d="M 12.59866 -160.73789 L -8.18219 -184.38047 "/>
<path transform="matrix(-.66316,.75444,.75444,.66316,155.8818,192.15647)" d="M 3.58653 0 C 2.52383 .19925 .797 .797 -.3985 1.49438 L -.3985 -1.49438 C .797 -.797 2.52383 -.19925 3.58653 0 "/>
<path transform="matrix(1,0,0,-1,164.064,7.776001)" stroke-width=".3985" stroke-linecap="butt" stroke-miterlimit="10" stroke-linejoin="miter" fill="none" stroke="#000000" d="M 29.57568 -160.73789 L 41.53151 -183.75295 "/>
<path transform="matrix(.46274,.89082,.89082,-.46274,205.59549,191.52895)" d="M 3.58653 0 C 2.52383 .19925 .797 .797 -.3985 1.49438 L -.3985 -1.49438 C .797 -.797 2.52383 -.19925 3.58653 0 "/>
<path transform="matrix(1,0,0,-1,164.064,7.776001)" stroke-width=".3985" stroke-linecap="butt" stroke-miterlimit="10" stroke-linejoin="miter" fill="none" stroke="#000000" d="M -21.4172 -203.2581 L -42.07684 -226.76232 "/>
<path transform="matrix(-.66312,.75444,.75444,.66312,121.98717,234.53832)" d="M 3.58653 0 C 2.52383 .19925 .797 .797 -.3985 1.49438 L -.3985 -1.49438 C .797 -.797 2.52383 -.19925 3.58653 0 "/>
<path transform="matrix(1,0,0,-1,164.064,7.776001)" stroke-width=".3985" stroke-linecap="butt" stroke-miterlimit="10" stroke-linejoin="miter" fill="none" stroke="#000000" d="M -4.44104 -203.2581 L 7.64455 -226.52225 "/>
<path transform="matrix(.4628,.89082,.89082,-.4628,171.70853,234.29825)" d="M 3.58653 0 C 2.52383 .19925 .797 .797 -.3985 1.49438 L -.3985 -1.49438 C .797 -.797 2.52383 -.19925 3.58653 0 "/>
<path transform="matrix(1,0,0,-1,164.064,7.776001)" stroke-width=".3985" stroke-linecap="butt" stroke-dasharray="2.98883,2.98883" stroke-miterlimit="10" stroke-linejoin="miter" fill="none" stroke="#000000" d="M 4.02765 -6.9791 C 30.96184 -53.62729 14.52492 -90.70152 14.52492 -140.97953 "/>
<path transform="matrix(0,1,1,0,178.58892,148.75553)" d="M 3.58653 0 C 2.52383 .19925 .797 .797 -.3985 1.49438 L -.3985 -1.49438 C .797 -.797 2.52383 -.19925 3.58653 0 "/>
<path transform="matrix(1,0,0,-1,164.064,7.776001)" stroke-width=".3985" stroke-linecap="butt" stroke-dasharray="2.98883,2.98883" stroke-miterlimit="10" stroke-linejoin="miter" fill="none" stroke="#000000" d="M -72.06091 -49.49933 C -100.55208 -98.84615 -42.67839 -133.54175 -24.4177 -183.71176 "/>
<path transform="matrix(.34244,.94089,.94089,-.34244,139.64629,191.48775)" d="M 3.58653 0 C 2.52383 .19925 .797 .797 -.3985 1.49438 L -.3985 -1.49438 C .797 -.797 2.52383 -.19925 3.58653 0 "/>
<path transform="matrix(1,0,0,-1,164.064,7.776001)" stroke-width=".3985" stroke-linecap="butt" stroke-dasharray="2.98883,2.98883" stroke-miterlimit="10" stroke-linejoin="miter" fill="none" stroke="#000000" d="M -114.13414 -92.01955 C -162.87033 -120.15596 -119.88281 -201.4455 -74.26485 -227.78296 "/>
<path transform="matrix(.86877,.50159,.50159,-.86877,89.79915,235.55896)" d="M 3.58653 0 C 2.52383 .19925 .797 .797 -.3985 1.49438 L -.3985 -1.49438 C .797 -.797 2.52383 -.19925 3.58653 0 "/>
<path transform="matrix(1,0,0,-1,164.064,7.776001)" stroke-width=".3985" stroke-linecap="butt" stroke-dasharray="2.98883,2.98883" stroke-miterlimit="10" stroke-linejoin="miter" fill="none" stroke="#000000" d="M -114.13626 -134.53977 C -150.91928 -155.77626 -85.08107 -194.67627 -62.77678 -226.52996 "/>
<path transform="matrix(.57361,.81923,.81923,-.57361,101.28722,234.30596)" d="M 3.58653 0 C 2.52383 .19925 .797 .797 -.3985 1.49438 L -.3985 -1.49438 C .797 -.797 2.52383 -.19925 3.58653 0 "/>
<path transform="matrix(1,0,0,-1,164.064,7.776001)" stroke-width=".3985" stroke-linecap="butt" stroke-dasharray="2.98883,2.98883" stroke-miterlimit="10" stroke-linejoin="miter" fill="none" stroke="#000000" d="M -29.98865 -92.01955 C -1.5906 -141.20284 31.91705 -174.86046 18.14824 -226.2461 "/>
<path transform="matrix(-.25931,.96782,.96782,.25931,182.21224,234.02208)" d="M 3.58653 0 C 2.52383 .19925 .797 .797 -.3985 1.49438 L -.3985 -1.49438 C .797 -.797 2.52383 -.19925 3.58653 0 "/>
<path transform="matrix(1,0,0,-1,164.064,7.776001)" stroke-width=".3985" stroke-linecap="butt" stroke-dasharray="2.98883,2.98883" stroke-miterlimit="10" stroke-linejoin="miter" fill="none" stroke="#000000" d="M 76.3482 -49.49933 C 118.22559 -84.63722 65.4493 -134.146 52.23106 -183.4768 "/>
<path transform="matrix(-.25931,.96782,.96782,.25931,216.29506,191.25279)" d="M 3.58653 0 C 2.52383 .19925 .797 .797 -.3985 1.49438 L -.3985 -1.49438 C .797 -.797 2.52383 -.19925 3.58653 0 "/>
<path transform="matrix(1,0,0,-1,164.064,7.776001)" stroke-width=".3985" stroke-linecap="butt" stroke-miterlimit="10" stroke-linejoin="miter" fill="none" stroke="#000000" d="M 56.63539 -204.2267 L 56.63539 -213.06084 "/>
<path transform="matrix(0,1,1,0,220.69939,220.83684)" d="M 3.58653 0 C 2.52383 .19925 .797 .797 -.3985 1.49438 L -.3985 -1.49438 C .797 -.797 2.52383 -.19925 3.58653 0 "/>
<text xml:space="preserve" transform="matrix(1 0 -0 1 0 283.633)" font-size="9.9626" font-family="CMR10"><tspan y="-48.774" x="197.84 202.2634 207.52365 211.39911 215.30445 223.88225 226.9308 231.9121 239.14495">entryforc</tspan></text>
<path transform="matrix(1,0,0,-1,164.064,7.776001)" stroke-width=".3985" stroke-linecap="butt" stroke-miterlimit="10" stroke-linejoin="miter" fill="none" stroke="#000000" d="M -45.41289 -246.74692 L -45.41289 -255.58107 "/>
<path transform="matrix(0,1,1,0,118.65111,263.35707)" d="M 3.58653 0 C 2.52383 .19925 .797 .797 -.3985 1.49438 L -.3985 -1.49438 C .797 -.797 2.52383 -.19925 3.58653 0 "/>
<text xml:space="preserve" transform="matrix(1 0 -0 1 0 283.633)" font-size="9.9626" font-family="CMR10"><tspan y="-6.254" x="95.516 99.93939 105.199649 109.075099 112.98044 121.5682 124.60679 129.58809 136.82094">entryfora</tspan></text>
</g>
</svg>
