<?xml version="1.0" encoding="UTF-8" standalone="no"?>
<!DOCTYPE svg PUBLIC "-//W3C//DTD SVG 1.1//EN" "http://www.w3.org/Graphics/SVG/1.1/DTD/svg11.dtd">
<svg xmlns="http://www.w3.org/2000/svg" xmlns:xlink="http://www.w3.org/1999/xlink" version="1.1" width="406.557pt" height="188.143pt" viewBox="0 0 406.557 188.143">
<g enable-background="new">
<text xml:space="preserve" transform="matrix(1 0 -0 1 0 188.143)" font-size="9.9626" font-family="CMR10"><tspan y="-176.964" x="73.031">E</tspan></text>
<text xml:space="preserve" transform="matrix(1 0 -0 1 -.0000038146974 188.143)" font-size="9.9626" font-family="CMR10"><tspan y="-132.504" x="5.493">T</tspan></text>
<text xml:space="preserve" transform="matrix(1 0 -0 1 .0000014305115 188.143)" font-size="9.9626" font-family="CMBX10" font-weight="bold"><tspan y="-89.929" x="4.317 7.4950697">id</tspan></text>
<path transform="matrix(1,0,0,-1,76.421,7.776001)" stroke-width=".3985" stroke-linecap="butt" stroke-dasharray=".3985,1.99255" stroke-miterlimit="10" stroke-linejoin="miter" fill="none" stroke="#000000" d="M -67.33092 -51.3834 L -67.33092 -80.00076 "/>
<text xml:space="preserve" transform="matrix(1 0 -0 1 0 188.143)" font-size="9.9626" font-family="CMMI10" font-style="italic"><tspan y="-131.214" x="185.508">E</tspan></text>
<text xml:space="preserve" transform="matrix(1 0 -0 1 0 188.143)" font-size="4.9813" font-family="CMSY5" font-style="italic"><tspan y="-137.836" x="193.43599">&#x2032;</tspan></text>
<text xml:space="preserve" transform="matrix(1 0 -0 1 -.0000076293949 188.143)" font-size="9.9626" font-family="CMSY10" font-style="italic"><tspan y="-90.898" x="85.147">&#x2212;</tspan></text>
<path transform="matrix(1,0,0,-1,76.421,7.776001)" stroke-width=".3985" stroke-linecap="butt" stroke-dasharray=".3985,1.99255" stroke-miterlimit="10" stroke-linejoin="miter" fill="none" stroke="#000000" d="M 105.5685 -48.23927 L 19.99506 -83.90298 "/>
<text xml:space="preserve" transform="matrix(1 0 -0 1 -.000015258789 188.143)" font-size="9.9626" font-family="CMR10"><tspan y="-89.985" x="153.455">T</tspan></text>
<path transform="matrix(1,0,0,-1,76.421,7.776001)" stroke-width=".3985" stroke-linecap="butt" stroke-dasharray=".3985,1.99255" stroke-miterlimit="10" stroke-linejoin="miter" fill="none" stroke="#000000" d="M 108.07785 -52.67418 L 86.16992 -80.05612 "/>
<text xml:space="preserve" transform="matrix(1 0 -0 1 0 188.143)" font-size="9.9626" font-family="CMBX10" font-weight="bold"><tspan y="-48.655" x="146.073 152.1203 158.4864">num</tspan></text>
<path transform="matrix(1,0,0,-1,76.421,7.776001)" stroke-width=".3985" stroke-linecap="butt" stroke-dasharray=".3985,1.99255" stroke-miterlimit="10" stroke-linejoin="miter" fill="none" stroke="#000000" d="M 80.63303 -93.90363 L 80.63303 -123.76634 "/>
<text xml:space="preserve" transform="matrix(1 0 -0 1 0 188.143)" font-size="9.9626" font-family="CMMI10" font-style="italic"><tspan y="-88.694" x="287.555">E</tspan></text>
<text xml:space="preserve" transform="matrix(1 0 -0 1 0 188.143)" font-size="4.9813" font-family="CMSY5" font-style="italic"><tspan y="-95.316" x="295.483">&#x2032;</tspan></text>
<path transform="matrix(1,0,0,-1,76.421,7.776001)" stroke-width=".3985" stroke-linecap="butt" stroke-dasharray=".3985,1.99255" stroke-miterlimit="10" stroke-linejoin="miter" fill="none" stroke="#000000" d="M 123.72975 -48.24203 L 207.61679 -83.20123 "/>
<text xml:space="preserve" transform="matrix(1 0 -0 1 -.000015258789 188.143)" font-size="9.9626" font-family="CMR10"><tspan y="-48.378" x="221.21">+</tspan></text>
<path transform="matrix(1,0,0,-1,76.421,7.776001)" stroke-width=".3985" stroke-linecap="butt" stroke-dasharray=".3985,1.99255" stroke-miterlimit="10" stroke-linejoin="miter" fill="none" stroke="#000000" d="M 207.61679 -92.6518 L 156.05947 -124.8822 "/>
<text xml:space="preserve" transform="matrix(1 0 -0 1 -.000015258789 188.14299)" font-size="9.9626" font-family="CMR10"><tspan y="-47.465" x="255.502">T</tspan></text>
<path transform="matrix(1,0,0,-1,76.421,7.776001)" stroke-width=".3985" stroke-linecap="butt" stroke-dasharray=".3985,1.99255" stroke-miterlimit="10" stroke-linejoin="miter" fill="none" stroke="#000000" d="M 210.12615 -95.1944 L 188.21823 -122.57634 "/>
<text xml:space="preserve" transform="matrix(1 0 -0 1 -.000015258789 188.143)" font-size="9.9626" font-family="CMBX10" font-weight="bold"><tspan y="-4.89" x="254.326 257.50407">id</tspan></text>
<path transform="matrix(1,0,0,-1,76.421,7.776001)" stroke-width=".3985" stroke-linecap="butt" stroke-dasharray=".3985,1.99255" stroke-miterlimit="10" stroke-linejoin="miter" fill="none" stroke="#000000" d="M 182.68132 -136.42386 L 182.68132 -165.04122 "/>
<text xml:space="preserve" transform="matrix(1 0 -0 1 0 188.14299)" font-size="9.9626" font-family="CMMI10" font-style="italic"><tspan y="-46.174" x="355.586">E</tspan></text>
<text xml:space="preserve" transform="matrix(1 0 -0 1 0 188.14299)" font-size="4.9813" font-family="CMSY5" font-style="italic"><tspan y="-52.796" x="363.514">&#x2032;</tspan></text>
<path transform="matrix(1,0,0,-1,76.421,7.776001)" stroke-width=".3985" stroke-linecap="butt" stroke-dasharray=".3985,1.99255" stroke-miterlimit="10" stroke-linejoin="miter" fill="none" stroke="#000000" d="M 225.77805 -92.65305 L 275.649 -123.82901 "/>
<text xml:space="preserve" transform="matrix(1 0 -0 1 0 188.14299)" font-size="9.9626" font-family="CMMI10" font-style="italic"><tspan y="-6.205" x="358.824">&#x03b5;</tspan></text>
<path transform="matrix(1,0,0,-1,76.421,7.776001)" stroke-width=".3985" stroke-linecap="butt" stroke-dasharray=".3985,1.99255" stroke-miterlimit="10" stroke-linejoin="miter" fill="none" stroke="#000000" d="M 284.7296 -137.71463 L 284.7296 -166.35575 "/>
<path transform="matrix(1,0,0,-1,76.421,7.776001)" stroke-width=".3985" stroke-linecap="butt" stroke-dasharray=".3985,1.99255" stroke-miterlimit="10" stroke-linejoin="miter" fill="none" stroke="#000000" d="M -6.90993 -4.56161 L -60.21344 -39.7634 M 6.90993 -2.67767 L 105.5685 -40.94136 "/>
<text xml:space="preserve" transform="matrix(1 0 -0 1 -.0000019073487 188.143)" font-size="9.9626" font-family="CMR10"><tspan y="-90.178" x="22.191">1</tspan></text>
<text xml:space="preserve" transform="matrix(1 0 -0 1 -.0000019073487 188.143)" font-size="9.9626" font-family="CMR10"><tspan y="-91.293" x="31.463 35.886396 41.14665 45.0221 48.927438">entry</tspan></text>
<text xml:space="preserve" transform="matrix(1 0 -0 1 -.0000019073487 188.143)" font-size="9.9626" font-family="CMR10"><tspan y="-132.698" x="22.191">2</tspan></text>
<text xml:space="preserve" transform="matrix(1 0 -0 1 -.0000038146974 188.143)" font-size="9.9626" font-family="CMR10"><tspan y="-132.449" x="32.445 37.984209 43.24446 48.78367">node</tspan></text>
<text xml:space="preserve" transform="matrix(1 0 -0 1 0 188.14299)" font-size="9.9626" font-family="CMR10"><tspan y="-47.659" x="170.153">3</tspan></text>
<text xml:space="preserve" transform="matrix(1 0 -0 1 0 188.143)" font-size="9.9626" font-family="CMR10"><tspan y="-47.41" x="184.558 189.26035 194.24164">val</tspan></text>
<text xml:space="preserve" transform="matrix(1 0 -0 1 0 188.143)" font-size="9.9626" font-family="CMR10"><tspan y="-90.178" x="170.153">4</tspan></text>
<text xml:space="preserve" transform="matrix(1 0 -0 1 0 188.143)" font-size="9.9626" font-family="CMR10"><tspan y="-89.929" x="180.407 185.9462 191.20644 196.74564">node</tspan></text>
<text xml:space="preserve" transform="matrix(1 0 -0 1 0 188.143)" font-size="9.9626" font-family="CMR10"><tspan y="-132.698" x="172.987">5</tspan></text>
<text xml:space="preserve" transform="matrix(1 0 -0 1 0 188.143)" font-size="9.9626" font-family="CMR10"><tspan y="-132.449" x="152.969 155.7386 161.2778">inh</tspan></text>
<text xml:space="preserve" transform="matrix(1 0 -0 1 0 188.143)" font-size="9.9626" font-family="CMR10"><tspan y="-90.178" x="275.034">6</tspan></text>
<text xml:space="preserve" transform="matrix(1 0 -0 1 -.000015258789 188.143)" font-size="9.9626" font-family="CMR10"><tspan y="-89.929" x="255.016 257.7856 263.32484">inh</tspan></text>
<text xml:space="preserve" transform="matrix(1 0 -0 1 0 188.143)" font-size="9.9626" font-family="CMR10"><tspan y="-5.139" x="272.2">7</tspan></text>
<text xml:space="preserve" transform="matrix(1 0 -0 1 0 188.143)" font-size="9.9626" font-family="CMR10"><tspan y="-6.254" x="281.472 285.8954 291.15565 295.0311 298.93644">entry</tspan></text>
<text xml:space="preserve" transform="matrix(1 0 -0 1 0 188.14299)" font-size="9.9626" font-family="CMR10"><tspan y="-47.659" x="272.2">8</tspan></text>
<text xml:space="preserve" transform="matrix(1 0 -0 1 0 188.143)" font-size="9.9626" font-family="CMR10"><tspan y="-47.41" x="282.454 287.99324 293.25349 298.7927">node</tspan></text>
<text xml:space="preserve" transform="matrix(1 0 -0 1 0 188.14299)" font-size="9.9626" font-family="CMR10"><tspan y="-47.659" x="343.065">9</tspan></text>
<text xml:space="preserve" transform="matrix(1 0 -0 1 0 188.143)" font-size="9.9626" font-family="CMR10"><tspan y="-47.41" x="323.047 325.8166 331.3558">inh</tspan></text>
<text xml:space="preserve" transform="matrix(1 0 -0 1 -.000030517579 188.14299)" font-size="9.9626" font-family="CMR10"><tspan y="-47.659" x="371.756 376.7373">10</tspan></text>
<text xml:space="preserve" transform="matrix(1 0 -0 1 -.000030517579 188.143)" font-size="9.9626" font-family="CMR10"><tspan y="-49.693" x="387.518 391.44328 396.70353">syn</tspan></text>
<text xml:space="preserve" transform="matrix(1 0 -0 1 0 188.143)" font-size="9.9626" font-family="CMR10"><tspan y="-90.178" x="303.725 308.7063">11</tspan></text>
<text xml:space="preserve" transform="matrix(1 0 -0 1 0 188.143)" font-size="9.9626" font-family="CMR10"><tspan y="-92.212" x="319.486 323.41127 328.6715">syn</tspan></text>
<text xml:space="preserve" transform="matrix(1 0 -0 1 .000015258789 188.143)" font-size="9.9626" font-family="CMR10"><tspan y="-132.698" x="201.678 206.65929">12</tspan></text>
<text xml:space="preserve" transform="matrix(1 0 -0 1 0 188.14299)" font-size="9.9626" font-family="CMR10"><tspan y="-134.732" x="217.439 221.36426 226.62451">syn</tspan></text>
<text xml:space="preserve" transform="matrix(1 0 -0 1 0 188.143)" font-size="9.9626" font-family="CMR10"><tspan y="-177.157" x="87.03 92.0113">13</tspan></text>
<text xml:space="preserve" transform="matrix(1 0 -0 1 -.0000076293949 188.143)" font-size="9.9626" font-family="CMR10"><tspan y="-176.908" x="99.775 105.31421 110.57446 116.11367">node</tspan></text>
<path transform="matrix(1,0,0,-1,76.421,7.776001)" stroke-width=".3985" stroke-linecap="butt" stroke-miterlimit="10" stroke-linejoin="miter" fill="none" stroke="#000000" d=""/>
<path transform="matrix(1,0,0,-1,76.421,7.776001)" stroke-width=".3985" stroke-linecap="butt" stroke-miterlimit="10" stroke-linejoin="miter" fill="none" stroke="#000000" d="M -51.7401 -80.24983 L -51.7401 -54.77623 "/>
<path transform="matrix(0,-1,-1,-0,24.680897,62.55223)" d="M 3.58653 0 C 2.52383 .19925 .797 .797 -.3985 1.49438 L -.3985 -1.49438 C .797 -.797 2.52383 -.19925 3.58653 0 "/>
<path transform="matrix(1,0,0,-1,76.421,7.776001)" stroke-width=".3985" stroke-linecap="butt" stroke-miterlimit="10" stroke-linejoin="miter" fill="none" stroke="#000000" d="M -45.72958 -41.65894 C 3.3192 -18.78484 43.999 -18.78484 89.78943 -40.13734 "/>
<path transform="matrix(.9085,.42366,.42366,-.9085,166.21042,47.91333)" d="M 3.58653 0 C 2.52383 .19925 .797 .797 -.3985 1.49438 L -.3985 -1.49438 C .797 -.797 2.52383 -.19925 3.58653 0 "/>
<path transform="matrix(1,0,0,-1,76.421,7.776001)" stroke-width=".3985" stroke-linecap="butt" stroke-miterlimit="10" stroke-linejoin="miter" fill="none" stroke="#000000" d="M 96.22385 -122.77007 L 96.22385 -97.29645 "/>
<path transform="matrix(0,-1,-1,-0,172.64484,105.07245)" d="M 3.58653 0 C 2.52383 .19925 .797 .797 -.3985 1.49438 L -.3985 -1.49438 C .797 -.797 2.52383 -.19925 3.58653 0 "/>
<path transform="matrix(1,0,0,-1,76.421,7.776001)" stroke-width=".3985" stroke-linecap="butt" stroke-miterlimit="10" stroke-linejoin="miter" fill="none" stroke="#000000" d="M 105.0688 -46.96103 L 191.77765 -83.09595 "/>
<path transform="matrix(.92525,.38556,.38556,-.92525,268.19865,90.87195)" d="M 3.58653 0 C 2.52383 .19925 .797 .797 -.3985 1.49438 L -.3985 -1.49438 C .797 -.797 2.52383 -.19925 3.58653 0 "/>
<path transform="matrix(1,0,0,-1,76.421,7.776001)" stroke-width=".3985" stroke-linecap="butt" stroke-miterlimit="10" stroke-linejoin="miter" fill="none" stroke="#000000" d="M 102.23436 -84.42934 C 135.56882 -70.27861 161.76161 -70.27861 191.78936 -83.02461 "/>
<path transform="matrix(.92198,.39139,.39139,-.92198,268.21034,90.8006)" d="M 3.58653 0 C 2.52383 .19925 .797 .797 -.3985 1.49438 L -.3985 -1.49438 C .797 -.797 2.52383 -.19925 3.58653 0 "/>
<path transform="matrix(1,0,0,-1,76.421,7.776001)" stroke-width=".3985" stroke-linecap="butt" stroke-miterlimit="10" stroke-linejoin="miter" fill="none" stroke="#000000" d="M 207.1171 -90.73405 L 260.08009 -123.84103 "/>
<path transform="matrix(.8499,.53125,.53125,-.8499,336.50108,131.61704)" d="M 3.58653 0 C 2.52383 .19925 .797 .797 -.3985 1.49438 L -.3985 -1.49438 C .797 -.797 2.52383 -.19925 3.58653 0 "/>
<path transform="matrix(1,0,0,-1,76.421,7.776001)" stroke-width=".3985" stroke-linecap="butt" stroke-miterlimit="10" stroke-linejoin="miter" fill="none" stroke="#000000" d="M 198.27214 -165.29029 L 198.27214 -139.81668 "/>
<path transform="matrix(0,-1,-1,-0,274.69316,147.59268)" d="M 3.58653 0 C 2.52383 .19925 .797 .797 -.3985 1.49438 L -.3985 -1.49438 C .797 -.797 2.52383 -.19925 3.58653 0 "/>
<path transform="matrix(1,0,0,-1,76.421,7.776001)" stroke-width=".3985" stroke-linecap="butt" stroke-miterlimit="10" stroke-linejoin="miter" fill="none" stroke="#000000" d="M 204.28266 -125.74481 C 223.74385 -113.58357 243.66709 -113.58357 260.08009 -123.83952 "/>
<path transform="matrix(.8499,.53108,.53108,-.8499,336.50108,131.61553)" d="M 3.58653 0 C 2.52383 .19925 .797 .797 -.3985 1.49438 L -.3985 -1.49438 C .797 -.797 2.52383 -.19925 3.58653 0 "/>
<path transform="matrix(1,0,0,-1,76.421,7.776001)" stroke-width=".3985" stroke-linecap="butt" stroke-miterlimit="10" stroke-linejoin="miter" fill="none" stroke="#000000" d="M 273.02403 -136.23014 C 277.03446 -143.17554 287.9189 -141.90102 291.05357 -138.7662 "/>
<path transform="matrix(.70715,-.7071,-.7071,-.70715,367.47456,146.5422)" d="M 3.58653 0 C 2.52383 .19925 .797 .797 -.3985 1.49438 L -.3985 -1.49438 C .797 -.797 2.52383 -.19925 3.58653 0 "/>
<path transform="matrix(1,0,0,-1,76.421,7.776001)" stroke-width=".3985" stroke-linecap="butt" stroke-miterlimit="10" stroke-linejoin="miter" fill="none" stroke="#000000" d="M 291.81925 -124.1901 L 243.83766 -94.19467 "/>
<path transform="matrix(-.8499,-.53131,-.53131,.8499,320.25868,101.97067)" d="M 3.58653 0 C 2.52383 .19925 .797 .797 -.3985 1.49438 L -.3985 -1.49438 C .797 -.797 2.52383 -.19925 3.58653 0 "/>
<path transform="matrix(1,0,0,-1,76.421,7.776001)" stroke-width=".3985" stroke-linecap="butt" stroke-miterlimit="10" stroke-linejoin="miter" fill="none" stroke="#000000" d="M 223.78702 -83.44221 L 142.05959 -49.38019 "/>
<path transform="matrix(-.92525,-.3856,-.3856,.92525,218.48059,57.156194)" d="M 3.58653 0 C 2.52383 .19925 .797 .797 -.3985 1.49438 L -.3985 -1.49438 C .797 -.797 2.52383 -.19925 3.58653 0 "/>
<path transform="matrix(1,0,0,-1,76.421,7.776001)" stroke-width=".3985" stroke-linecap="butt" stroke-miterlimit="10" stroke-linejoin="miter" fill="none" stroke="#000000" d="M 121.73872 -41.16339 L 27.44467 -4.59413 "/>
<path transform="matrix(-.93478,-.36256,-.36256,.93478,103.86569,12.370131)" d="M 3.58653 0 C 2.52383 .19925 .797 .797 -.3985 1.49438 L -.3985 -1.49438 C .797 -.797 2.52383 -.19925 3.58653 0 "/>
</g>
</svg>
