<?xml version="1.0" encoding="UTF-8" standalone="no"?>
<svg
   width="476.62506pt"
   height="203.89284pt"
   viewBox="0 0 476.62506 203.89284"
   version="1.1"
   id="svg86"
   sodipodi:docname="os-a-deadlock-example.pdf"
   xmlns:inkscape="http://www.inkscape.org/namespaces/inkscape"
   xmlns:sodipodi="http://sodipodi.sourceforge.net/DTD/sodipodi-0.dtd"
   xmlns:xlink="http://www.w3.org/1999/xlink"
   xmlns="http://www.w3.org/2000/svg"
   xmlns:svg="http://www.w3.org/2000/svg">
  <sodipodi:namedview
     id="namedview86"
     pagecolor="#ffffff"
     bordercolor="#000000"
     borderopacity="0.25"
     inkscape:showpageshadow="2"
     inkscape:pageopacity="0.0"
     inkscape:pagecheckerboard="0"
     inkscape:deskcolor="#d1d1d1"
     inkscape:document-units="pt" />
  <defs
     id="defs21">
    <g
       id="g20">
      <g
         id="glyph-0-0">
        <path
           d="M 0.890625,0 H 1.71875 v -2.765625 h 1.1875 L 4.484375,0 h 0.9375 l -1.65625,-2.84375 c 0.890625,-0.234375 1.46875,-0.84375 1.46875,-1.859375 0,-1.359375 -0.953125,-1.84375 -2.296875,-1.84375 H 0.890625 Z M 1.71875,-3.4375 V -5.875 h 1.109375 c 1.015625,0 1.578125,0.3125 1.578125,1.171875 0,0.84375 -0.5625,1.265625 -1.578125,1.265625 z m 0,0"
           id="path1" />
      </g>
      <g
         id="glyph-0-1">
        <path
           d="m 2.03125,-3.65625 c 0.234375,-0.734375 0.4375,-1.453125 0.640625,-2.203125 H 2.71875 c 0.203125,0.75 0.40625,1.46875 0.65625,2.203125 l 0.296875,1 H 1.71875 Z M 0.03125,0 H 0.875 L 1.5,-2 H 3.890625 L 4.5,0 H 5.390625 L 3.1875,-6.546875 H 2.25 Z m 0,0"
           id="path2" />
      </g>
      <g
         id="glyph-0-2">
        <path
           d="m 0.890625,0 h 2.09375 c 1.46875,0 2.484375,-0.640625 2.484375,-1.9375 0,-0.890625 -0.53125,-1.390625 -1.34375,-1.546875 v -0.03125 c 0.625,-0.203125 0.953125,-0.75 0.953125,-1.421875 0,-1.15625 -0.90625,-1.609375 -2.234375,-1.609375 H 0.890625 Z M 1.71875,-3.765625 V -5.875 h 1.015625 c 1.015625,0 1.53125,0.28125 1.53125,1.046875 0,0.65625 -0.453125,1.0625 -1.578125,1.0625 z m 0,3.109375 V -3.125 h 1.140625 c 1.140625,0 1.78125,0.375 1.78125,1.1875 0,0.875 -0.65625,1.28125 -1.78125,1.28125 z m 0,0"
           id="path3" />
      </g>
      <g
         id="glyph-0-3">
        <path
           d="m 3.375,0.125 c 0.859375,0 1.453125,-0.34375 1.984375,-0.9375 L 4.9375,-1.296875 c -0.421875,0.453125 -0.890625,0.6875 -1.5,0.6875 -1.265625,0 -2.0625,-1.03125 -2.0625,-2.6875 0,-1.625 0.828125,-2.640625 2.046875,-2.640625 0.546875,0 1,0.21875 1.34375,0.59375 L 5.21875,-5.859375 C 4.828125,-6.296875 4.203125,-6.65625 3.421875,-6.65625 1.75,-6.65625 0.515625,-5.375 0.515625,-3.265625 0.515625,-1.140625 1.75,0.125 3.375,0.125 Z m 0,0"
           id="path4" />
      </g>
      <g
         id="glyph-0-4">
        <path
           d="m 2.71875,0.125 c 1.375,0 2.21875,-0.828125 2.21875,-1.875 0,-0.96875 -0.578125,-1.40625 -1.34375,-1.734375 l -0.9375,-0.40625 C 2.140625,-4.109375 1.578125,-4.34375 1.578125,-4.96875 c 0,-0.59375 0.484375,-0.96875 1.21875,-0.96875 0.578125,0 1.078125,0.25 1.484375,0.609375 L 4.71875,-5.875 c -0.453125,-0.453125 -1.125,-0.78125 -1.921875,-0.78125 -1.203125,0 -2.0625,0.734375 -2.0625,1.734375 0,0.9375 0.703125,1.40625 1.328125,1.6875 L 3,-2.828125 c 0.625,0.28125 1.09375,0.484375 1.09375,1.15625 0,0.640625 -0.515625,1.0625 -1.375,1.0625 -0.6875,0 -1.359375,-0.296875 -1.828125,-0.78125 l -0.46875,0.53125 C 0.984375,-0.25 1.78125,0.125 2.71875,0.125 Z m 0,0"
           id="path5" />
      </g>
      <g
         id="glyph-0-5">
        <path
           d="m 0.890625,0 h 1.6875 C 4.546875,0 5.625,-1.21875 5.625,-3.296875 c 0,-2.078125 -1.078125,-3.25 -3.09375,-3.25 H 0.890625 Z M 1.71875,-0.671875 v -5.1875 h 0.75 c 1.53125,0 2.296875,0.921875 2.296875,2.5625 0,1.65625 -0.765625,2.625 -2.296875,2.625 z m 0,0"
           id="path6" />
      </g>
      <g
         id="glyph-0-6">
        <path
           d="M 2.25,0 H 3.09375 V -5.84375 H 5.0625 V -6.546875 H 0.28125 V -5.84375 H 2.25 Z m 0,0"
           id="path7" />
      </g>
      <g
         id="glyph-0-7">
        <path
           d="m 0.890625,0 h 3.875 V -0.703125 H 1.71875 v -2.375 H 4.203125 V -3.78125 H 1.71875 v -2.0625 h 2.953125 v -0.703125 h -3.78125 z m 0,0"
           id="path8" />
      </g>
      <g
         id="glyph-0-8">
        <path
           d="M 0.890625,0 H 1.71875 v -2.9375 h 2.5 V -3.625 h -2.5 v -2.21875 h 2.953125 v -0.703125 h -3.78125 z m 0,0"
           id="path9" />
      </g>
      <g
         id="glyph-0-9">
        <path
           d="m 3.21875,0.125 c 1.34375,0 2.34375,-0.71875 2.34375,-2.78125 V -6.546875 H 4.765625 v 3.90625 c 0,1.546875 -0.671875,2.03125 -1.546875,2.03125 -0.859375,0 -1.53125,-0.484375 -1.53125,-2.03125 v -3.90625 H 0.875 v 3.890625 c 0,2.0625 1.015625,2.78125 2.34375,2.78125 z m 0,0"
           id="path10" />
      </g>
      <g
         id="glyph-0-10">
        <path
           d="m 2.046875,0 h 0.96875 l 2.125,-6.546875 H 4.28125 l -1.078125,3.53125 c -0.25,0.796875 -0.40625,1.390625 -0.625,2.171875 H 2.53125 C 2.296875,-1.625 2.125,-2.21875 1.890625,-3.015625 l -1,-3.53125 H 0 Z m 0,0"
           id="path11" />
      </g>
      <g
         id="glyph-0-11">
        <path
           d="M 1.578125,0 H 2.65625 l 0.953125,-3.921875 c 0.109375,-0.5 0.203125,-0.96875 0.28125,-1.546875 H 3.9375 c 0.09375,0.578125 0.1875,1.046875 0.296875,1.546875 L 5.171875,0 h 1.0625 l 1.375,-6.546875 h -0.84375 l -0.6875,3.5625 C 5.9375,-2.28125 5.828125,-1.578125 5.71875,-0.84375 H 5.6875 C 5.53125,-1.578125 5.375,-2.296875 5.21875,-2.984375 l -0.859375,-3.5625 H 3.515625 L 2.625,-2.984375 C 2.46875,-2.28125 2.328125,-1.578125 2.1875,-0.84375 H 2.140625 C 2.03125,-1.578125 1.90625,-2.265625 1.78125,-2.984375 l -0.671875,-3.5625 h -0.875 z m 0,0"
           id="path12" />
      </g>
      <g
         id="glyph-0-12">
        <path
           d="m 3.46875,0.125 c 0.875,0 1.59375,-0.328125 2.015625,-0.765625 v -2.75 H 3.34375 v 0.6875 h 1.375 V -1 c -0.25,0.25 -0.703125,0.390625 -1.171875,0.390625 -1.390625,0 -2.171875,-1.03125 -2.171875,-2.6875 0,-1.625 0.84375,-2.640625 2.15625,-2.640625 0.671875,0 1.078125,0.25 1.40625,0.609375 l 0.46875,-0.53125 c -0.375,-0.40625 -0.984375,-0.796875 -1.890625,-0.796875 -1.734375,0 -3,1.28125 -3,3.390625 0,2.125 1.234375,3.390625 2.953125,3.390625 z m 0,0"
           id="path13" />
      </g>
      <g
         id="glyph-0-13">
        <path
           d="m 2.65625,-4.296875 c 0.75,0 1.171875,0.515625 1.171875,1.453125 H 1.3125 c 0.125,-1.046875 0.734375,-1.453125 1.34375,-1.453125 z M 2.78125,0.125 c 0.65625,0 1.171875,-0.21875 1.609375,-0.5 L 4.09375,-0.921875 c -0.34375,0.234375 -0.75,0.375 -1.21875,0.375 -0.8125,0 -1.515625,-0.5625 -1.59375,-1.65625 h 3.25 c 0.03125,-0.15625 0.03125,-0.3125 0.03125,-0.484375 0,-1.375 -0.671875,-2.28125 -1.921875,-2.28125 -1.109375,0 -2.1875,0.96875 -2.1875,2.546875 0,1.609375 1.015625,2.546875 2.328125,2.546875 z m 0,0"
           id="path14" />
      </g>
      <g
         id="glyph-0-14">
        <path
           d="m 1.9375,0.125 c 0.609375,0 1.125,-0.3125 1.59375,-0.703125 H 3.5625 L 3.640625,0 H 4.3125 v -2.96875 c 0,-1.203125 -0.5,-2 -1.6875,-2 -0.765625,0 -1.453125,0.328125 -1.890625,0.625 l 0.3125,0.5625 c 0.375,-0.234375 0.890625,-0.5 1.453125,-0.5 0.78125,0 0.984375,0.59375 1,1.203125 C 1.421875,-2.84375 0.515625,-2.34375 0.515625,-1.25 c 0,0.875 0.609375,1.375 1.421875,1.375 z m 0.21875,-0.6875 c -0.46875,0 -0.84375,-0.203125 -0.84375,-0.75 0,-0.625 0.546875,-0.984375 2.1875,-1.1875 v 1.3125 c -0.46875,0.421875 -0.875,0.625 -1.34375,0.625 z m 0,0"
           id="path15" />
      </g>
      <g
         id="glyph-0-15">
        <path
           d="m 2.46875,0.125 c 0.578125,0 1.09375,-0.328125 1.46875,-0.6875 H 3.96875 L 4.03125,0 h 0.6875 V -7.09375 H 3.890625 v 1.859375 l 0.03125,0.828125 C 3.5,-4.75 3.125,-4.96875 2.578125,-4.96875 c -1.109375,0 -2.109375,0.984375 -2.109375,2.5625 0,1.609375 0.78125,2.53125 2,2.53125 z m 0.1875,-0.6875 c -0.859375,0 -1.34375,-0.703125 -1.34375,-1.859375 0,-1.109375 0.625,-1.859375 1.40625,-1.859375 0.390625,0 0.765625,0.140625 1.171875,0.515625 v 2.53125 C 3.484375,-0.78125 3.09375,-0.5625 2.65625,-0.5625 Z m 0,0"
           id="path16" />
      </g>
      <g
         id="glyph-0-16">
        <path
           d="m 1.6875,0.09375 c 0.203125,0 0.359375,-0.03125 0.46875,-0.078125 l -0.109375,-0.625 C 1.96875,-0.59375 1.921875,-0.59375 1.875,-0.59375 1.75,-0.59375 1.640625,-0.671875 1.640625,-0.9375 V -7.09375 H 0.8125 V -1 c 0,0.703125 0.25,1.09375 0.875,1.09375 z m 0,0"
           id="path17" />
      </g>
      <g
         id="glyph-0-17">
        <path
           d="m 2.703125,0.125 c 1.1875,0 2.234375,-0.9375 2.234375,-2.53125 0,-1.625 -1.046875,-2.5625 -2.234375,-2.5625 -1.1875,0 -2.25,0.9375 -2.25,2.5625 0,1.59375 1.0625,2.53125 2.25,2.53125 z m 0,-0.6875 c -0.828125,0 -1.390625,-0.75 -1.390625,-1.84375 0,-1.125 0.5625,-1.875 1.390625,-1.875 0.828125,0 1.390625,0.75 1.390625,1.875 0,1.09375 -0.5625,1.84375 -1.390625,1.84375 z m 0,0"
           id="path18" />
      </g>
      <g
         id="glyph-0-18">
        <path
           d="m 2.734375,0.125 c 0.625,0 1.15625,-0.25 1.5625,-0.640625 l -0.359375,-0.5 C 3.65625,-0.75 3.25,-0.5625 2.8125,-0.5625 c -0.90625,0 -1.5,-0.75 -1.5,-1.84375 0,-1.125 0.640625,-1.875 1.515625,-1.875 0.40625,0 0.71875,0.15625 0.96875,0.390625 l 0.40625,-0.5 C 3.875,-4.71875 3.421875,-4.96875 2.796875,-4.96875 c -1.25,0 -2.34375,0.9375 -2.34375,2.5625 0,1.59375 1,2.53125 2.28125,2.53125 z m 0,0"
           id="path19" />
      </g>
      <g
         id="glyph-0-19">
        <path
           d="M 0.8125,0 H 1.640625 V -1.28125 L 2.53125,-2.328125 3.953125,0 H 4.84375 L 3.015625,-2.890625 4.625,-4.84375 H 3.703125 L 1.65625,-2.296875 H 1.640625 V -7.09375 H 0.8125 Z m 0,0"
           id="path20" />
      </g>
    </g>
    <clipPath
       id="clip-0">
      <path
         clip-rule="nonzero"
         d="m 450,39 h 30.60547 V 74 H 450 Z m 0,0"
         id="path21" />
    </clipPath>
  </defs>
  <path
     fill-rule="nonzero"
     fill="#ffffff"
     fill-opacity="1"
     stroke-width="0.3985"
     stroke-linecap="butt"
     stroke-linejoin="miter"
     stroke="#000000"
     stroke-opacity="1"
     stroke-miterlimit="10"
     d="M 0.19925,22.878938 H 22.875032 V 0.19925 H 0.19925 Z m 0,0"
     id="path22" />
  <g
     fill="#000000"
     fill-opacity="1"
     id="g22"
     transform="translate(-1.992156,-1.992156)">
    <use
       xlink:href="#glyph-0-0"
       x="10.696"
       y="16.798"
       id="use22" />
  </g>
  <path
     fill-rule="nonzero"
     fill="#ffffff"
     fill-opacity="1"
     stroke-width="0.3985"
     stroke-linecap="butt"
     stroke-linejoin="miter"
     stroke="#000000"
     stroke-opacity="1"
     stroke-miterlimit="10"
     d="m 79.570344,11.539094 c 0,-6.261719 -5.078125,-11.339844 -11.339844,-11.339844 -6.261719,0 -11.335937,5.078125 -11.335937,11.339844 0,6.261719 5.074218,11.339844 11.335937,11.339844 6.261719,0 11.339844,-5.078125 11.339844,-11.339844 z m 0,0"
     id="path23" />
  <g
     fill="#000000"
     fill-opacity="1"
     id="g23"
     transform="translate(-1.992156,-1.992156)">
    <use
       xlink:href="#glyph-0-1"
       x="67.513"
       y="16.798"
       id="use23" />
  </g>
  <path
     fill-rule="nonzero"
     fill="#ffffff"
     fill-opacity="1"
     stroke-width="0.3985"
     stroke-linecap="butt"
     stroke-linejoin="miter"
     stroke="#000000"
     stroke-opacity="1"
     stroke-miterlimit="10"
     d="m 192.95706,11.539094 c 0,-6.261719 -5.07422,-11.339844 -11.33985,-11.339844 -6.26171,0 -11.33593,5.078125 -11.33593,11.339844 0,6.261719 5.07422,11.339844 11.33593,11.339844 6.26563,0 11.33985,-5.078125 11.33985,-11.339844 z m 0,0"
     id="path24" />
  <g
     fill="#000000"
     fill-opacity="1"
     id="g24"
     transform="translate(-1.992156,-1.992156)">
    <use
       xlink:href="#glyph-0-2"
       x="180.67999"
       y="16.798"
       id="use24" />
  </g>
  <path
     fill-rule="nonzero"
     fill="#ffffff"
     fill-opacity="1"
     stroke-width="0.3985"
     stroke-linecap="butt"
     stroke-linejoin="miter"
     stroke="#000000"
     stroke-opacity="1"
     stroke-miterlimit="10"
     d="m 22.875032,68.234407 c 0,-6.265625 -5.074219,-11.339844 -11.335938,-11.339844 -6.261719,0 -11.339844,5.074219 -11.339844,11.339844 0,6.261718 5.078125,11.335937 11.339844,11.335937 6.261719,0 11.335938,-5.074219 11.335938,-11.335937 z m 0,0"
     id="path25" />
  <g
     fill="#000000"
     fill-opacity="1"
     id="g25"
     transform="translate(-1.992156,-1.992156)">
    <use
       xlink:href="#glyph-0-3"
       x="10.686"
       y="73.490997"
       id="use25" />
  </g>
  <path
     fill-rule="nonzero"
     fill="#ffffff"
     fill-opacity="1"
     stroke-width="0.3985"
     stroke-linecap="butt"
     stroke-linejoin="miter"
     stroke="#000000"
     stroke-opacity="1"
     stroke-miterlimit="10"
     d="M 56.894563,79.570344 H 79.570344 V 56.894563 H 56.894563 Z m 0,0"
     id="path26" />
  <g
     fill="#000000"
     fill-opacity="1"
     id="g26"
     transform="translate(-1.992156,-1.992156)">
    <use
       xlink:href="#glyph-0-4"
       x="67.563004"
       y="73.490997"
       id="use26" />
  </g>
  <path
     fill-rule="nonzero"
     fill="#ffffff"
     fill-opacity="1"
     stroke-width="0.3985"
     stroke-linecap="butt"
     stroke-linejoin="miter"
     stroke="#000000"
     stroke-opacity="1"
     stroke-miterlimit="10"
     d="m 136.26565,68.234407 c 0,-6.265625 -5.07812,-11.339844 -11.33984,-11.339844 -6.26172,0 -11.33984,5.074219 -11.33984,11.339844 0,6.261718 5.07812,11.335937 11.33984,11.335937 6.26172,0 11.33984,-5.074219 11.33984,-11.335937 z m 0,0"
     id="path27" />
  <g
     fill="#000000"
     fill-opacity="1"
     id="g27"
     transform="translate(-1.992156,-1.992156)">
    <use
       xlink:href="#glyph-0-5"
       x="123.853"
       y="73.490997"
       id="use27" />
  </g>
  <path
     fill-rule="nonzero"
     fill="#ffffff"
     fill-opacity="1"
     stroke-width="0.3985"
     stroke-linecap="butt"
     stroke-linejoin="miter"
     stroke="#000000"
     stroke-opacity="1"
     stroke-miterlimit="10"
     d="m 170.28128,79.570344 h 22.67578 V 56.894563 h -22.67578 z m 0,0"
     id="path28" />
  <g
     fill="#000000"
     fill-opacity="1"
     id="g28"
     transform="translate(-1.992156,-1.992156)">
    <use
       xlink:href="#glyph-0-6"
       x="180.939"
       y="73.490997"
       id="use28" />
  </g>
  <path
     fill-rule="nonzero"
     fill="#ffffff"
     fill-opacity="1"
     stroke-width="0.3985"
     stroke-linecap="butt"
     stroke-linejoin="miter"
     stroke="#000000"
     stroke-opacity="1"
     stroke-miterlimit="10"
     d="m 249.65237,68.234407 c 0,-6.265625 -5.07812,-11.339844 -11.33984,-11.339844 -6.26172,0 -11.33985,5.074219 -11.33985,11.339844 0,6.261718 5.07813,11.335937 11.33985,11.335937 6.26172,0 11.33984,-5.074219 11.33984,-11.335937 z m 0,0"
     id="path29" />
  <g
     fill="#000000"
     fill-opacity="1"
     id="g29"
     transform="translate(-1.992156,-1.992156)">
    <use
       xlink:href="#glyph-0-7"
       x="237.677"
       y="73.490997"
       id="use29" />
  </g>
  <path
     fill-rule="nonzero"
     fill="#ffffff"
     fill-opacity="1"
     stroke-width="0.3985"
     stroke-linecap="butt"
     stroke-linejoin="miter"
     stroke="#000000"
     stroke-opacity="1"
     stroke-miterlimit="10"
     d="m 79.570344,124.92581 c 0,-6.26172 -5.078125,-11.33985 -11.339844,-11.33985 -6.261719,0 -11.335937,5.07813 -11.335937,11.33985 0,6.26172 5.074218,11.33984 11.335937,11.33984 6.261719,0 11.339844,-5.07812 11.339844,-11.33984 z m 0,0"
     id="path30" />
  <g
     fill="#000000"
     fill-opacity="1"
     id="g30"
     transform="translate(-1.992156,-1.992156)">
    <use
       xlink:href="#glyph-0-8"
       x="67.762001"
       y="130.18401"
       id="use30" />
  </g>
  <path
     fill-rule="nonzero"
     fill="#ffffff"
     fill-opacity="1"
     stroke-width="0.3985"
     stroke-linecap="butt"
     stroke-linejoin="miter"
     stroke="#000000"
     stroke-opacity="1"
     stroke-miterlimit="10"
     d="m 113.58597,136.26565 h 22.67968 v -22.67969 h -22.67968 z m 0,0"
     id="path31" />
  <g
     fill="#000000"
     fill-opacity="1"
     id="g31"
     transform="translate(-1.992156,-1.992156)">
    <use
       xlink:href="#glyph-0-9"
       x="123.703"
       y="130.12399"
       id="use31" />
  </g>
  <path
     fill-rule="nonzero"
     fill="#ffffff"
     fill-opacity="1"
     stroke-width="0.3985"
     stroke-linecap="butt"
     stroke-linejoin="miter"
     stroke="#000000"
     stroke-opacity="1"
     stroke-miterlimit="10"
     d="m 226.97268,136.26565 h 22.67969 v -22.67969 h -22.67969 z m 0,0"
     id="path32" />
  <g
     fill="#000000"
     fill-opacity="1"
     id="g32"
     transform="translate(-1.992156,-1.992156)">
    <use
       xlink:href="#glyph-0-10"
       x="237.737"
       y="130.18401"
       id="use32" />
  </g>
  <path
     fill-rule="nonzero"
     fill="#ffffff"
     fill-opacity="1"
     stroke-width="0.3985"
     stroke-linecap="butt"
     stroke-linejoin="miter"
     stroke="#000000"
     stroke-opacity="1"
     stroke-miterlimit="10"
     d="M 56.894563,192.95706 H 79.570344 V 170.28128 H 56.894563 Z m 0,0"
     id="path33" />
  <g
     fill="#000000"
     fill-opacity="1"
     id="g33"
     transform="translate(-1.992156,-1.992156)">
    <use
       xlink:href="#glyph-0-11"
       x="66.307999"
       y="186.877"
       id="use33" />
  </g>
  <path
     fill-rule="nonzero"
     fill="#ffffff"
     fill-opacity="1"
     stroke-width="0.3985"
     stroke-linecap="butt"
     stroke-linejoin="miter"
     stroke="#000000"
     stroke-opacity="1"
     stroke-miterlimit="10"
     d="m 136.26565,181.62112 c 0,-6.26562 -5.07812,-11.33984 -11.33984,-11.33984 -6.26172,0 -11.33984,5.07422 -11.33984,11.33984 0,6.26172 5.07812,11.33594 11.33984,11.33594 6.26172,0 11.33984,-5.07422 11.33984,-11.33594 z m 0,0"
     id="path34" />
  <g
     fill="#000000"
     fill-opacity="1"
     id="g34"
     transform="translate(-1.992156,-1.992156)">
    <use
       xlink:href="#glyph-0-12"
       x="123.843"
       y="186.877"
       id="use34" />
  </g>
  <path
     fill="none"
     stroke-width="0.79701"
     stroke-linecap="butt"
     stroke-linejoin="miter"
     stroke="#000000"
     stroke-opacity="1"
     stroke-miterlimit="10"
     d="M 23.07425,11.539094 H 52.582063"
     id="path35" />
  <path
     fill-rule="nonzero"
     fill="#000000"
     fill-opacity="1"
     stroke-width="0.79701"
     stroke-linecap="butt"
     stroke-linejoin="miter"
     stroke="#000000"
     stroke-opacity="1"
     stroke-miterlimit="10"
     d="m 55.558625,11.539094 -4.152343,-1.570312 1.375,1.570312 -1.375,1.570313 z m 0,0"
     id="path36" />
  <path
     fill="none"
     stroke-width="0.79701"
     stroke-linecap="butt"
     stroke-linejoin="miter"
     stroke="#000000"
     stroke-opacity="1"
     stroke-miterlimit="10"
     d="M 68.2305,23.078157 V 52.585969"
     id="path37" />
  <path
     fill-rule="nonzero"
     fill="#000000"
     fill-opacity="1"
     stroke-width="0.79701"
     stroke-linecap="butt"
     stroke-linejoin="miter"
     stroke="#000000"
     stroke-opacity="1"
     stroke-miterlimit="10"
     d="m 68.2305,55.558625 1.570313,-4.152343 -1.570313,1.378906 -1.570312,-1.378906 z m 0,0"
     id="path38" />
  <path
     fill="none"
     stroke-width="0.79701"
     stroke-linecap="butt"
     stroke-linejoin="miter"
     stroke="#000000"
     stroke-opacity="1"
     stroke-miterlimit="10"
     d="M 181.61721,23.078157 V 52.585969"
     id="path39" />
  <path
     fill-rule="nonzero"
     fill="#000000"
     fill-opacity="1"
     stroke-width="0.79701"
     stroke-linecap="butt"
     stroke-linejoin="miter"
     stroke="#000000"
     stroke-opacity="1"
     stroke-miterlimit="10"
     d="m 181.61722,55.558625 1.57031,-4.152343 -1.57031,1.378906 -1.57031,-1.378906 z m 0,0"
     id="path40" />
  <path
     fill="none"
     stroke-width="0.79701"
     stroke-linecap="butt"
     stroke-linejoin="miter"
     stroke="#000000"
     stroke-opacity="1"
     stroke-miterlimit="10"
     d="M 23.07425,68.234407 H 52.582063"
     id="path41" />
  <path
     fill-rule="nonzero"
     fill="#000000"
     fill-opacity="1"
     stroke-width="0.79701"
     stroke-linecap="butt"
     stroke-linejoin="miter"
     stroke="#000000"
     stroke-opacity="1"
     stroke-miterlimit="10"
     d="m 55.558625,68.234406 -4.152343,-1.574218 1.375,1.574218 -1.375,1.570313 z m 0,0"
     id="path42" />
  <path
     fill="none"
     stroke-width="0.79701"
     stroke-linecap="butt"
     stroke-linejoin="miter"
     stroke="#000000"
     stroke-opacity="1"
     stroke-miterlimit="10"
     d="M 113.38675,68.234407 H 83.878938"
     id="path43" />
  <path
     fill-rule="nonzero"
     fill="#000000"
     fill-opacity="1"
     stroke-width="0.79701"
     stroke-linecap="butt"
     stroke-linejoin="miter"
     stroke="#000000"
     stroke-opacity="1"
     stroke-miterlimit="10"
     d="m 80.906281,68.234406 4.152344,1.570313 -1.378906,-1.570313 1.378906,-1.574218 z m 0,0"
     id="path44" />
  <path
     fill="none"
     stroke-width="0.79701"
     stroke-linecap="butt"
     stroke-linejoin="miter"
     stroke="#000000"
     stroke-opacity="1"
     stroke-miterlimit="10"
     d="m 136.46487,68.234407 h 29.50391"
     id="path45" />
  <path
     fill-rule="nonzero"
     fill="#000000"
     fill-opacity="1"
     stroke-width="0.79701"
     stroke-linecap="butt"
     stroke-linejoin="miter"
     stroke="#000000"
     stroke-opacity="1"
     stroke-miterlimit="10"
     d="m 168.94534,68.234406 -4.15234,-1.574218 1.375,1.574218 -1.375,1.570313 z m 0,0"
     id="path46" />
  <path
     fill="none"
     stroke-width="0.79701"
     stroke-linecap="butt"
     stroke-linejoin="miter"
     stroke="#000000"
     stroke-opacity="1"
     stroke-miterlimit="10"
     d="m 193.15628,68.234407 h 29.50781"
     id="path47" />
  <path
     fill-rule="nonzero"
     fill="#000000"
     fill-opacity="1"
     stroke-width="0.79701"
     stroke-linecap="butt"
     stroke-linejoin="miter"
     stroke="#000000"
     stroke-opacity="1"
     stroke-miterlimit="10"
     d="m 225.64066,68.234406 -4.15625,-1.574218 1.3789,1.574218 -1.3789,1.570313 z m 0,0"
     id="path48" />
  <path
     fill="none"
     stroke-width="0.79701"
     stroke-linecap="butt"
     stroke-linejoin="miter"
     stroke="#000000"
     stroke-opacity="1"
     stroke-miterlimit="10"
     d="M 238.31253,79.769563 V 109.27737"
     id="path49" />
  <path
     fill-rule="nonzero"
     fill="#000000"
     fill-opacity="1"
     stroke-width="0.79701"
     stroke-linecap="butt"
     stroke-linejoin="miter"
     stroke="#000000"
     stroke-opacity="1"
     stroke-miterlimit="10"
     d="m 238.31253,112.25394 1.57031,-4.15235 -1.57031,1.375 -1.57031,-1.375 z m 0,0"
     id="path50" />
  <path
     fill="none"
     stroke-width="0.79701"
     stroke-linecap="butt"
     stroke-linejoin="miter"
     stroke="#000000"
     stroke-opacity="1"
     stroke-miterlimit="10"
     d="M 68.2305,113.38675 V 83.878938"
     id="path51" />
  <path
     fill-rule="nonzero"
     fill="#000000"
     fill-opacity="1"
     stroke-width="0.79701"
     stroke-linecap="butt"
     stroke-linejoin="miter"
     stroke="#000000"
     stroke-opacity="1"
     stroke-miterlimit="10"
     d="m 68.2305,80.906282 -1.570312,4.152343 1.570312,-1.378906 1.570313,1.378906 z m 0,0"
     id="path52" />
  <path
     fill="none"
     stroke-width="0.79701"
     stroke-linecap="butt"
     stroke-linejoin="miter"
     stroke="#000000"
     stroke-opacity="1"
     stroke-miterlimit="10"
     d="M 68.2305,170.08206 V 140.57425"
     id="path53" />
  <path
     fill-rule="nonzero"
     fill="#000000"
     fill-opacity="1"
     stroke-width="0.79701"
     stroke-linecap="butt"
     stroke-linejoin="miter"
     stroke="#000000"
     stroke-opacity="1"
     stroke-miterlimit="10"
     d="m 68.2305,137.59769 -1.570312,4.15625 1.570312,-1.37891 1.570313,1.37891 z m 0,0"
     id="path54" />
  <path
     fill="none"
     stroke-width="0.79701"
     stroke-linecap="butt"
     stroke-linejoin="miter"
     stroke="#000000"
     stroke-opacity="1"
     stroke-miterlimit="10"
     d="M 124.92581,113.38675 V 83.878938"
     id="path55" />
  <path
     fill-rule="nonzero"
     fill="#000000"
     fill-opacity="1"
     stroke-width="0.79701"
     stroke-linecap="butt"
     stroke-linejoin="miter"
     stroke="#000000"
     stroke-opacity="1"
     stroke-miterlimit="10"
     d="m 124.92581,80.906282 -1.57031,4.152343 1.57031,-1.378906 1.57031,1.378906 z m 0,0"
     id="path56" />
  <path
     fill="none"
     stroke-width="0.79701"
     stroke-linecap="butt"
     stroke-linejoin="miter"
     stroke="#000000"
     stroke-opacity="1"
     stroke-miterlimit="10"
     d="M 124.92581,170.08206 V 140.57425"
     id="path57" />
  <path
     fill-rule="nonzero"
     fill="#000000"
     fill-opacity="1"
     stroke-width="0.79701"
     stroke-linecap="butt"
     stroke-linejoin="miter"
     stroke="#000000"
     stroke-opacity="1"
     stroke-miterlimit="10"
     d="m 124.92581,137.59769 -1.57031,4.15625 1.57031,-1.37891 1.57031,1.37891 z m 0,0"
     id="path58" />
  <path
     fill="none"
     stroke-width="0.79701"
     stroke-linecap="butt"
     stroke-linejoin="miter"
     stroke="#000000"
     stroke-opacity="1"
     stroke-miterlimit="10"
     d="m 238.31253,136.46487 v 45.15625 h -97.73828"
     id="path59" />
  <path
     fill-rule="nonzero"
     fill="#000000"
     fill-opacity="1"
     stroke-width="0.79701"
     stroke-linecap="butt"
     stroke-linejoin="miter"
     stroke="#000000"
     stroke-opacity="1"
     stroke-miterlimit="10"
     d="m 137.59769,181.62113 4.15234,1.57031 -1.375,-1.57031 1.375,-1.57032 z m 0,0"
     id="path60" />
  <path
     fill-rule="nonzero"
     fill="#ffffff"
     fill-opacity="1"
     stroke-width="0.3985"
     stroke-linecap="butt"
     stroke-linejoin="miter"
     stroke="#000000"
     stroke-opacity="1"
     stroke-miterlimit="10"
     d="m 363.03909,54.058625 c 0,-6.261718 -5.07812,-11.339843 -11.33984,-11.339843 -6.26172,0 -11.33985,5.078125 -11.33985,11.339843 0,6.261719 5.07813,11.339844 11.33985,11.339844 6.26172,0 11.33984,-5.078125 11.33984,-11.339844 z m 0,0"
     id="path61" />
  <g
     fill="#000000"
     fill-opacity="1"
     id="g61"
     transform="translate(-1.992156,-1.992156)">
    <use
       xlink:href="#glyph-0-5"
       x="350.62399"
       y="59.318001"
       id="use61" />
  </g>
  <path
     fill-rule="nonzero"
     fill="#ffffff"
     fill-opacity="1"
     stroke-width="0.3985"
     stroke-linecap="butt"
     stroke-linejoin="miter"
     stroke="#000000"
     stroke-opacity="1"
     stroke-miterlimit="10"
     d="M 397.05472,65.398469 H 419.7305 V 42.718782 h -22.67578 z m 0,0"
     id="path62" />
  <g
     fill="#000000"
     fill-opacity="1"
     id="g62"
     transform="translate(-1.992156,-1.992156)">
    <use
       xlink:href="#glyph-0-6"
       x="407.711"
       y="59.318001"
       id="use62" />
  </g>
  <path
     fill-rule="nonzero"
     fill="#ffffff"
     fill-opacity="1"
     d="m 476.42581,54.058625 c 0,-6.261719 -5.07813,-11.339843 -11.33985,-11.339843 -6.26171,0 -11.33593,5.078124 -11.33593,11.339843 0,6.261719 5.07422,11.339844 11.33593,11.339844 6.26172,0 11.33985,-5.078125 11.33985,-11.339844 z m 0,0"
     id="path63" />
  <g
     clip-path="url(#clip-0)"
     id="g64"
     transform="translate(-1.992156,-1.992156)">
    <path
       fill="none"
       stroke-width="0.3985"
       stroke-linecap="butt"
       stroke-linejoin="miter"
       stroke="#000000"
       stroke-opacity="1"
       stroke-miterlimit="10"
       d="m 464.88797,-42.519781 c 0,6.261718 -5.07813,11.339843 -11.33984,11.339843 -6.26172,0 -11.33594,-5.078125 -11.33594,-11.339843 0,-6.261719 5.07422,-11.339844 11.33594,-11.339844 6.26171,0 11.33984,5.078125 11.33984,11.339844 z m 0,0"
       transform="matrix(1,0,0,-1,13.53,13.531)"
       id="path64" />
  </g>
  <g
     fill="#000000"
     fill-opacity="1"
     id="g65"
     transform="translate(-1.992156,-1.992156)">
    <use
       xlink:href="#glyph-0-7"
       x="464.448"
       y="59.318001"
       id="use64" />
  </g>
  <path
     fill-rule="nonzero"
     fill="#ffffff"
     fill-opacity="1"
     stroke-width="0.3985"
     stroke-linecap="butt"
     stroke-linejoin="miter"
     stroke="#000000"
     stroke-opacity="1"
     stroke-miterlimit="10"
     d="m 340.3594,122.08987 h 22.67969 V 99.414094 H 340.3594 Z m 0,0"
     id="path65" />
  <g
     fill="#000000"
     fill-opacity="1"
     id="g66"
     transform="translate(-1.992156,-1.992156)">
    <use
       xlink:href="#glyph-0-9"
       x="350.47501"
       y="115.951"
       id="use65" />
  </g>
  <path
     fill-rule="nonzero"
     fill="#ffffff"
     fill-opacity="1"
     stroke-width="0.3985"
     stroke-linecap="butt"
     stroke-linejoin="miter"
     stroke="#000000"
     stroke-opacity="1"
     stroke-miterlimit="10"
     d="m 453.75003,122.08987 h 22.67578 V 99.414094 h -22.67578 z m 0,0"
     id="path66" />
  <g
     fill="#000000"
     fill-opacity="1"
     id="g67"
     transform="translate(-1.992156,-1.992156)">
    <use
       xlink:href="#glyph-0-10"
       x="464.508"
       y="116.011"
       id="use66" />
  </g>
  <path
     fill-rule="nonzero"
     fill="#ffffff"
     fill-opacity="1"
     stroke-width="0.3985"
     stroke-linecap="butt"
     stroke-linejoin="miter"
     stroke="#000000"
     stroke-opacity="1"
     stroke-miterlimit="10"
     d="m 363.03909,167.44534 c 0,-6.26172 -5.07812,-11.33594 -11.33984,-11.33594 -6.26172,0 -11.33985,5.07422 -11.33985,11.33594 0,6.26172 5.07813,11.33984 11.33985,11.33984 6.26172,0 11.33984,-5.07812 11.33984,-11.33984 z m 0,0"
     id="path67" />
  <g
     fill="#000000"
     fill-opacity="1"
     id="g68"
     transform="translate(-1.992156,-1.992156)">
    <use
       xlink:href="#glyph-0-12"
       x="350.61401"
       y="172.70399"
       id="use67" />
  </g>
  <path
     fill="none"
     stroke-width="0.79701"
     stroke-linecap="butt"
     stroke-linejoin="miter"
     stroke="#000000"
     stroke-opacity="1"
     stroke-miterlimit="10"
     d="m 363.23831,54.058625 h 29.50781"
     id="path68" />
  <path
     fill-rule="nonzero"
     fill="#000000"
     fill-opacity="1"
     stroke-width="0.79701"
     stroke-linecap="butt"
     stroke-linejoin="miter"
     stroke="#000000"
     stroke-opacity="1"
     stroke-miterlimit="10"
     d="m 395.71878,54.058625 -4.15234,-1.570312 1.3789,1.570312 -1.3789,1.570313 z m 0,0"
     id="path69" />
  <path
     fill="none"
     stroke-width="0.79701"
     stroke-linecap="butt"
     stroke-linejoin="miter"
     stroke="#000000"
     stroke-opacity="1"
     stroke-miterlimit="10"
     d="m 419.92972,54.058625 h 29.50781"
     id="path70" />
  <path
     fill-rule="nonzero"
     fill="#000000"
     fill-opacity="1"
     stroke-width="0.79701"
     stroke-linecap="butt"
     stroke-linejoin="miter"
     stroke="#000000"
     stroke-opacity="1"
     stroke-miterlimit="10"
     d="m 452.41409,54.058625 -4.15234,-1.570312 1.375,1.570312 -1.375,1.570313 z m 0,0"
     id="path71" />
  <path
     fill="none"
     stroke-width="0.79701"
     stroke-linecap="butt"
     stroke-linejoin="miter"
     stroke="#000000"
     stroke-opacity="1"
     stroke-miterlimit="10"
     d="M 465.08597,65.597688 V 95.1055"
     id="path72" />
  <path
     fill-rule="nonzero"
     fill="#000000"
     fill-opacity="1"
     stroke-width="0.79701"
     stroke-linecap="butt"
     stroke-linejoin="miter"
     stroke="#000000"
     stroke-opacity="1"
     stroke-miterlimit="10"
     d="m 465.08597,98.078157 1.57031,-4.152344 -1.57031,1.378906 -1.57031,-1.378906 z m 0,0"
     id="path73" />
  <path
     fill="none"
     stroke-width="0.79701"
     stroke-linecap="butt"
     stroke-linejoin="miter"
     stroke="#000000"
     stroke-opacity="1"
     stroke-miterlimit="10"
     d="M 351.69925,99.214875 V 69.707063"
     id="path74" />
  <path
     fill-rule="nonzero"
     fill="#000000"
     fill-opacity="1"
     stroke-width="0.79701"
     stroke-linecap="butt"
     stroke-linejoin="miter"
     stroke="#000000"
     stroke-opacity="1"
     stroke-miterlimit="10"
     d="m 351.69925,66.7305 -1.57031,4.15625 1.57031,-1.378906 1.57031,1.378906 z m 0,0"
     id="path75" />
  <path
     fill="none"
     stroke-width="0.79701"
     stroke-linecap="butt"
     stroke-linejoin="miter"
     stroke="#000000"
     stroke-opacity="1"
     stroke-miterlimit="10"
     d="M 351.69925,155.91018 V 126.40237"
     id="path76" />
  <path
     fill-rule="nonzero"
     fill="#000000"
     fill-opacity="1"
     stroke-width="0.79701"
     stroke-linecap="butt"
     stroke-linejoin="miter"
     stroke="#000000"
     stroke-opacity="1"
     stroke-miterlimit="10"
     d="m 351.69925,123.42581 -1.57031,4.15235 1.57031,-1.375 1.57031,1.375 z m 0,0"
     id="path77" />
  <path
     fill="none"
     stroke-width="0.79701"
     stroke-linecap="butt"
     stroke-linejoin="miter"
     stroke="#000000"
     stroke-opacity="1"
     stroke-miterlimit="10"
     d="m 465.08597,122.28909 v 45.15625 h -97.73829"
     id="path78" />
  <path
     fill-rule="nonzero"
     fill="#000000"
     fill-opacity="1"
     stroke-width="0.79701"
     stroke-linecap="butt"
     stroke-linejoin="miter"
     stroke="#000000"
     stroke-opacity="1"
     stroke-miterlimit="10"
     d="m 364.37112,167.44534 4.15625,1.57032 -1.3789,-1.57032 1.3789,-1.57031 z m 0,0"
     id="path79" />
  <g
     fill="#000000"
     fill-opacity="1"
     id="g80"
     transform="translate(-1.992156,-1.992156)">
    <use
       xlink:href="#glyph-0-5"
       x="390.93399"
       y="205.75999"
       id="use79" />
    <use
       xlink:href="#glyph-0-13"
       x="397.06104"
       y="205.75999"
       id="use80" />
  </g>
  <g
     fill="#000000"
     fill-opacity="1"
     id="g86"
     transform="translate(-1.992156,-1.992156)">
    <use
       xlink:href="#glyph-0-14"
       x="401.86301"
       y="205.75999"
       id="use81" />
    <use
       xlink:href="#glyph-0-15"
       x="406.88419"
       y="205.75999"
       id="use82" />
    <use
       xlink:href="#glyph-0-16"
       x="412.41345"
       y="205.75999"
       id="use83" />
    <use
       xlink:href="#glyph-0-17"
       x="414.95392"
       y="205.75999"
       id="use84" />
    <use
       xlink:href="#glyph-0-18"
       x="420.35367"
       y="205.75999"
       id="use85" />
    <use
       xlink:href="#glyph-0-19"
       x="424.89664"
       y="205.75999"
       id="use86" />
  </g>
  <path
     fill-rule="nonzero"
     fill="#ffffff"
     fill-opacity="1"
     stroke-width="0.3985"
     stroke-linecap="butt"
     stroke-linejoin="miter"
     stroke="#000000"
     stroke-opacity="1"
     stroke-miterlimit="10"
     d="M 318.02737,110.75394 307.418,100.14456 v 7.08985 h -31.91407 v 7.03905 H 307.418 v 7.08594 z m 0,0"
     id="path86" />
</svg>
