<?xml version="1.0" encoding="UTF-8" standalone="no"?>
<!DOCTYPE svg PUBLIC "-//W3C//DTD SVG 1.1//EN"
 "http://www.w3.org/Graphics/SVG/1.1/DTD/svg11.dtd">
<!-- Generated by graphviz version 2.49.3 (0)
 -->
<!-- Title: Dominator tree for &#39;sum&#39; function Pages: 1 -->
<svg width="207pt" height="214pt"
 viewBox="0.00 0.00 207.00 214.00" xmlns="http://www.w3.org/2000/svg" xmlns:xlink="http://www.w3.org/1999/xlink">
<g id="graph0" class="graph" transform="scale(1 1) rotate(0) translate(4 210)">
<title>Dominator tree for &#39;sum&#39; function</title>
<polygon fill="white" stroke="transparent" points="-4,4 -4,-210 203,-210 203,4 -4,4"/>
<text text-anchor="middle" x="99.5" y="-7.8" font-family="Times,serif" font-size="14.00">Dominator tree for &#39;sum&#39; function</text>
<!-- Node0x556d1385a6b0 -->
<g id="node1" class="node">
<title>Node0x556d1385a6b0</title>
<polygon fill="none" stroke="black" points="72.5,-169.5 72.5,-205.5 126.5,-205.5 126.5,-169.5 72.5,-169.5"/>
<text text-anchor="middle" x="99.5" y="-183.8" font-family="Times,serif" font-size="14.00">%2</text>
</g>
<!-- Node0x556d13857930 -->
<g id="node2" class="node">
<title>Node0x556d13857930</title>
<polygon fill="none" stroke="black" points="36.5,-96.5 36.5,-132.5 90.5,-132.5 90.5,-96.5 36.5,-96.5"/>
<text text-anchor="middle" x="63.5" y="-110.8" font-family="Times,serif" font-size="14.00">%4</text>
</g>
<!-- Node0x556d1385a6b0&#45;&gt;Node0x556d13857930 -->
<g id="edge1" class="edge">
<title>Node0x556d1385a6b0&#45;&gt;Node0x556d13857930</title>
<path fill="none" stroke="black" d="M90.79,-169.31C86.58,-161.03 81.45,-150.91 76.78,-141.69"/>
<polygon fill="black" stroke="black" points="79.78,-139.87 72.13,-132.53 73.54,-143.03 79.78,-139.87"/>
</g>
<!-- Node0x556d13868a80 -->
<g id="node3" class="node">
<title>Node0x556d13868a80</title>
<polygon fill="none" stroke="black" points="108.5,-96.5 108.5,-132.5 162.5,-132.5 162.5,-96.5 108.5,-96.5"/>
<text text-anchor="middle" x="135.5" y="-110.8" font-family="Times,serif" font-size="14.00">%6</text>
</g>
<!-- Node0x556d1385a6b0&#45;&gt;Node0x556d13868a80 -->
<g id="edge2" class="edge">
<title>Node0x556d1385a6b0&#45;&gt;Node0x556d13868a80</title>
<path fill="none" stroke="black" d="M108.21,-169.31C112.42,-161.03 117.55,-150.91 122.22,-141.69"/>
<polygon fill="black" stroke="black" points="125.46,-143.03 126.87,-132.53 119.22,-139.87 125.46,-143.03"/>
</g>
<!-- Node0x556d1385a570 -->
<g id="node4" class="node">
<title>Node0x556d1385a570</title>
<polygon fill="none" stroke="black" points="36.5,-23.5 36.5,-59.5 90.5,-59.5 90.5,-23.5 36.5,-23.5"/>
<text text-anchor="middle" x="63.5" y="-37.8" font-family="Times,serif" font-size="14.00">%9</text>
</g>
<!-- Node0x556d13857930&#45;&gt;Node0x556d1385a570 -->
<g id="edge3" class="edge">
<title>Node0x556d13857930&#45;&gt;Node0x556d1385a570</title>
<path fill="none" stroke="black" d="M63.5,-96.31C63.5,-88.29 63.5,-78.55 63.5,-69.57"/>
<polygon fill="black" stroke="black" points="67,-69.53 63.5,-59.53 60,-69.53 67,-69.53"/>
</g>
</g>
</svg>
