<?xml version="1.0" encoding="UTF-8" standalone="no"?>
<!DOCTYPE svg PUBLIC "-//W3C//DTD SVG 1.1//EN"
 "http://www.w3.org/Graphics/SVG/1.1/DTD/svg11.dtd">
<!-- Generated by graphviz version 2.49.3 (0)
 -->
<!-- Title: CFG for &#39;sum&#39; function Pages: 1 -->
<svg width="519pt" height="538pt"
 viewBox="0.00 0.00 518.94 538.00" xmlns="http://www.w3.org/2000/svg" xmlns:xlink="http://www.w3.org/1999/xlink">
<g id="graph0" class="graph" transform="scale(1 1) rotate(0) translate(4 534)">
<title>CFG for &#39;sum&#39; function</title>
<polygon fill="white" stroke="transparent" points="-4,4 -4,-534 514.94,-534 514.94,4 -4,4"/>
<text text-anchor="middle" x="255.47" y="-7.8" font-family="Times,serif" font-size="14.00">CFG for &#39;sum&#39; function</text>
<!-- Node0x563ebd5bc420 -->
<g id="node1" class="node">
<title>Node0x563ebd5bc420</title>
<polygon fill="#d24b40" fill-opacity="0.439216" stroke="#3d50c3" points="217.5,-445.5 217.5,-529.5 473.5,-529.5 473.5,-445.5 217.5,-445.5"/>
<text text-anchor="start" x="225.5" y="-514.3" font-family="Courier,monospace" font-size="14.00">2:</text>
<polyline fill="none" stroke="#3d50c3" points="217.5,-506.5 473.5,-506.5 "/>
<text text-anchor="start" x="225.5" y="-491.3" font-family="Courier,monospace" font-size="14.00">%3 = icmp sgt i32 %1, 0</text>
<text text-anchor="start" x="225.5" y="-476.3" font-family="Courier,monospace" font-size="14.00"> br i1 %3, label %4, label %6</text>
<polyline fill="none" stroke="#3d50c3" points="217.5,-468.5 473.5,-468.5 "/>
<text text-anchor="middle" x="281.5" y="-453.3" font-family="Courier,monospace" font-size="14.00">T</text>
<polyline fill="none" stroke="#3d50c3" points="345.5,-445.5 345.5,-468.5 "/>
<text text-anchor="middle" x="409.5" y="-453.3" font-family="Courier,monospace" font-size="14.00">F</text>
</g>
<!-- Node0x563ebd5bdf60 -->
<g id="node2" class="node">
<title>Node0x563ebd5bdf60</title>
<polygon fill="#d65244" fill-opacity="0.439216" stroke="#3d50c3" points="145.5,-347.5 145.5,-408.5 393.5,-408.5 393.5,-347.5 145.5,-347.5"/>
<text text-anchor="start" x="153.5" y="-393.3" font-family="Courier,monospace" font-size="14.00">4:</text>
<polyline fill="none" stroke="#3d50c3" points="145.5,-385.5 393.5,-385.5 "/>
<text text-anchor="start" x="153.5" y="-370.3" font-family="Courier,monospace" font-size="14.00">%5 = zext nneg i32 %1 to i64</text>
<text text-anchor="start" x="153.5" y="-355.3" font-family="Courier,monospace" font-size="14.00"> br label %9</text>
</g>
<!-- Node0x563ebd5bc420&#45;&gt;Node0x563ebd5bdf60 -->
<g id="edge1" class="edge">
<title>Node0x563ebd5bc420:s0&#45;&gt;Node0x563ebd5bdf60</title>
<g id="a_edge1"><a xlink:title="2 &#45;&gt; 4&#10;Probability 62.50%">
<path fill="none" stroke="black" d="M281.5,-445C281.5,-436.38 280.5,-427.22 279.07,-418.57"/>
<polygon fill="black" stroke="black" points="282.5,-417.88 277.24,-408.69 275.62,-419.16 282.5,-417.88"/>
</a>
</g>
</g>
<!-- Node0x563ebd5bdfc0 -->
<g id="node3" class="node">
<title>Node0x563ebd5bdfc0</title>
<polygon fill="#d24b40" fill-opacity="0.439216" stroke="#3d50c3" points="138,-23.5 138,-99.5 443,-99.5 443,-23.5 138,-23.5"/>
<text text-anchor="start" x="146" y="-84.3" font-family="Courier,monospace" font-size="14.00">6:</text>
<polyline fill="none" stroke="#3d50c3" points="138,-76.5 443,-76.5 "/>
<text text-anchor="start" x="146" y="-61.3" font-family="Courier,monospace" font-size="14.00">%7 = phi i32 [ 1, %2 ], [ %14, %9 ]</text>
<text text-anchor="start" x="146" y="-46.3" font-family="Courier,monospace" font-size="14.00"> %8 = sdiv i32 %7, %1</text>
<text text-anchor="start" x="146" y="-31.3" font-family="Courier,monospace" font-size="14.00"> ret i32 %8</text>
</g>
<!-- Node0x563ebd5bc420&#45;&gt;Node0x563ebd5bdfc0 -->
<g id="edge2" class="edge">
<title>Node0x563ebd5bc420:s1&#45;&gt;Node0x563ebd5bdfc0</title>
<g id="a_edge2"><a xlink:title="2 &#45;&gt; 6&#10;Probability 37.50%">
<path fill="none" stroke="black" d="M474.5,-456.5C545.83,-456.5 497.07,-194.67 456.5,-136 448.12,-123.89 437.28,-113.75 425.14,-105.27"/>
<polygon fill="black" stroke="black" points="426.83,-102.19 416.55,-99.66 423.01,-108.05 426.83,-102.19"/>
</a>
</g>
</g>
<!-- Node0x563ebd5be180 -->
<g id="node4" class="node">
<title>Node0x563ebd5be180</title>
<polygon fill="#b70d28" fill-opacity="0.439216" stroke="#b70d28" points="0,-136.5 0,-310.5 429,-310.5 429,-136.5 0,-136.5"/>
<text text-anchor="start" x="8" y="-295.3" font-family="Courier,monospace" font-size="14.00">9:</text>
<polyline fill="none" stroke="#b70d28" points="0,-287.5 429,-287.5 "/>
<text text-anchor="start" x="8" y="-272.3" font-family="Courier,monospace" font-size="14.00">%10 = phi i64 [ 0, %4 ], [ %15, %9 ]</text>
<text text-anchor="start" x="8" y="-257.3" font-family="Courier,monospace" font-size="14.00"> %11 = phi i32 [ 1, %4 ], [ %14, %9 ]</text>
<text text-anchor="start" x="8" y="-242.3" font-family="Courier,monospace" font-size="14.00"> %12 = getelementptr inbounds i32, ptr %0, i64 %10</text>
<text text-anchor="start" x="8" y="-227.3" font-family="Courier,monospace" font-size="14.00"> %13 = load i32, ptr %12, align 4, !tbaa !5</text>
<text text-anchor="start" x="8" y="-212.3" font-family="Courier,monospace" font-size="14.00"> %14 = add nsw i32 %13, %11</text>
<text text-anchor="start" x="8" y="-197.3" font-family="Courier,monospace" font-size="14.00"> %15 = add nuw nsw i64 %10, 1</text>
<text text-anchor="start" x="8" y="-182.3" font-family="Courier,monospace" font-size="14.00"> %16 = icmp eq i64 %15, %5</text>
<text text-anchor="start" x="8" y="-167.3" font-family="Courier,monospace" font-size="14.00"> br i1 %16, label %6, label %9, !llvm.loop !9</text>
<polyline fill="none" stroke="#b70d28" points="0,-159.5 429,-159.5 "/>
<text text-anchor="middle" x="107" y="-144.3" font-family="Courier,monospace" font-size="14.00">T</text>
<polyline fill="none" stroke="#b70d28" points="214,-136.5 214,-159.5 "/>
<text text-anchor="middle" x="321.5" y="-144.3" font-family="Courier,monospace" font-size="14.00">F</text>
</g>
<!-- Node0x563ebd5bdf60&#45;&gt;Node0x563ebd5be180 -->
<g id="edge3" class="edge">
<title>Node0x563ebd5bdf60&#45;&gt;Node0x563ebd5be180</title>
<g id="a_edge3"><a xlink:title="4 &#45;&gt; 9&#10;Probability 100.00%">
<path fill="none" stroke="black" d="M258.76,-347.23C255.83,-339.09 252.48,-329.8 248.96,-320.06"/>
<polygon fill="black" stroke="black" points="252.24,-318.83 245.55,-310.61 245.66,-321.2 252.24,-318.83"/>
</a>
</g>
</g>
<!-- Node0x563ebd5be180&#45;&gt;Node0x563ebd5bdfc0 -->
<g id="edge4" class="edge">
<title>Node0x563ebd5be180:s0&#45;&gt;Node0x563ebd5bdfc0</title>
<g id="a_edge4"><a xlink:title="9 &#45;&gt; 6&#10;Probability 3.12%">
<path fill="none" stroke="black" d="M106.5,-136C106.5,-116.73 115.31,-102.38 129.07,-91.71"/>
<polygon fill="black" stroke="black" points="131.4,-94.36 137.71,-85.85 127.47,-88.56 131.4,-94.36"/>
</a>
</g>
</g>
<!-- Node0x563ebd5be180&#45;&gt;Node0x563ebd5be180 -->
<g id="edge5" class="edge">
<title>Node0x563ebd5be180:s1&#45;&gt;Node0x563ebd5be180</title>
<g id="a_edge5"><a xlink:title="9 &#45;&gt; 9&#10;Probability 96.88%">
<path fill="none" stroke="black" d="M345.43,-136.47C408.76,-109.88 447,-117.22 447,-185.5 447,-197.63 443.11,-207.83 436.24,-216.26"/>
<polygon fill="black" stroke="black" points="433.63,-213.92 429.13,-223.51 438.63,-218.82 433.63,-213.92"/>
</a>
</g>
</g>
</g>
</svg>
